<?xml version="1.0" encoding="UTF-8"?>
<!DOCTYPE svg PUBLIC "-//W3C//DTD SVG 1.1//EN" "http://www.w3.org/Graphics/SVG/1.1/DTD/svg11.dtd">
<!-- Creator: CorelDRAW X7 -->
<svg xmlns="http://www.w3.org/2000/svg" xml:space="preserve" width="153.543mm" height="95.2613mm" version="1.1" style="shape-rendering:geometricPrecision; text-rendering:geometricPrecision; image-rendering:optimizeQuality; fill-rule:evenodd; clip-rule:evenodd"
viewBox="0 0 15354 9526"
 xmlns:xlink="http://www.w3.org/1999/xlink">
 <defs>
  <style type="text/css">
   <![CDATA[
    .str0 {stroke:black;stroke-width:20}
    .fil3 {fill:none}
    .fil0 {fill:#49A4DB}
    .fil1 {fill:#003399}
    .fil2 {fill:#003082}
   ]]>
  </style>
 </defs>
 <g id="Capa_x0020_1">
  <metadata id="CorelCorpID_0Corel-Layer"/>
  <g id="_2893909867440">
   <path class="fil0" d="M6333 2558c-385,719 -105,1632 630,2007 -35,102 -78,207 -129,314 -645,-333 -1398,-1234 -770,-2513 97,62 186,126 269,192z"/>
   <path class="fil0" d="M8153 4991c-313,-1101 -179,-2251 938,-2819 770,1037 221,2473 -938,2819zm256 -485c652,-405 885,-1245 538,-1924 -537,463 -731,1170 -538,1924z"/>
   <path class="fil0" d="M8030 1832c-241,-67 -500,-72 -744,-13 116,155 268,302 447,432 -99,95 -215,173 -349,228 -158,-195 -469,-594 -579,-841 414,-213 901,-257 1345,-125 -31,109 -70,217 -120,319z"/>
   <path class="fil1" d="M7423 5054c-175,-21 -343,-66 -499,-132 555,-1083 306,-1973 -810,-2653 48,-74 101,-143 160,-209 1294,854 1390,1669 1149,2994z"/>
   <path class="fil1" d="M7475 2588c442,-167 694,-588 807,-1031 133,51 259,116 375,195 -118,317 -382,701 -638,903 -183,144 -216,247 -544,-67z"/>
   <path class="fil0" d="M3213 6886l-139 0 0 -884 139 0 0 884zm890 0l-148 0 -388 -650c-10,-16 -18,-33 -24,-51l-4 0c3,19 5,59 5,121l0 580 -131 0 0 -884 157 0 376 634c16,27 26,45 31,55l2 0c-4,-24 -6,-63 -6,-119l0 -570 130 0 0 884zm1075 0l-134 0 0 -572c0,-47 3,-104 8,-172l-2 0c-8,38 -16,66 -22,83l-243 661 -93 0 -243 -656c-7,-19 -14,-49 -22,-88l-2 0c3,35 4,93 4,173l0 571 -124 0 0 -884 190 0 213 589c17,45 27,79 32,101l3 0c14,-46 25,-81 34,-104l218 -586 183 0 0 884zm826 -357c0,248 -108,372 -324,372 -207,0 -311,-119 -311,-358l0 -541 135 0 0 510c0,174 62,261 186,261 120,0 179,-84 179,-252l0 -519 135 0 0 527zm882 357l-148 0 -388 -650c-10,-16 -18,-33 -25,-51l-3 0c3,19 4,59 4,121l0 580 -130 0 0 -884 157 0 376 634c15,27 25,45 30,55l2 0c-3,-24 -5,-63 -5,-119l0 -570 130 0 0 884zm536 15c-117,0 -211,-41 -281,-124 -71,-82 -106,-190 -106,-323 0,-142 36,-256 108,-340 72,-85 169,-128 292,-128 115,0 207,42 277,124 69,82 104,190 104,323 0,144 -36,258 -107,342 -72,85 -167,126 -287,126zm7 -786c-75,0 -135,31 -182,91 -47,61 -70,140 -70,239 0,98 23,177 68,237 45,60 105,91 178,91 78,0 139,-29 184,-86 45,-57 68,-138 68,-240 0,-106 -22,-188 -66,-245 -43,-58 -103,-87 -180,-87z"/>
   <path class="fil2" d="M8422 6886l-457 0 0 -884 439 0 0 125 -304 0 0 250 280 0 0 124 -280 0 0 261 322 0 0 124zm835 0l-148 0 -388 -650c-10,-16 -18,-33 -25,-51l-3 0c3,19 4,59 4,121l0 580 -130 0 0 -884 157 0 376 634c15,27 25,45 30,55l2 0c-3,-24 -5,-63 -5,-119l0 -570 130 0 0 884zm164 -34l0 -152c12,13 27,24 44,34 17,10 36,18 55,25 19,7 39,12 58,16 19,3 37,5 53,5 57,0 99,-10 127,-31 28,-20 42,-50 42,-90 0,-21 -5,-39 -14,-54 -9,-16 -22,-30 -39,-42 -17,-13 -36,-26 -59,-37 -22,-12 -46,-24 -72,-37 -28,-16 -53,-32 -77,-49 -24,-16 -45,-34 -62,-54 -18,-20 -32,-43 -42,-68 -10,-25 -15,-55 -15,-88 0,-42 9,-78 26,-109 17,-30 40,-56 68,-76 28,-20 60,-34 96,-44 36,-10 73,-15 110,-15 85,0 147,11 186,32l0 145c-46,-36 -105,-54 -178,-54 -20,0 -40,2 -60,6 -20,4 -37,11 -53,21 -16,9 -28,21 -38,36 -10,15 -15,32 -15,53 0,20 4,37 11,52 8,14 19,27 34,39 14,12 32,24 53,35 21,11 45,24 73,37 28,16 55,33 80,50 25,18 47,38 66,59 20,22 35,45 46,71 11,27 17,56 17,90 0,44 -9,82 -25,113 -17,31 -40,56 -68,75 -28,20 -60,34 -97,42 -37,9 -75,13 -116,13 -14,0 -31,-1 -51,-3 -19,-2 -40,-5 -61,-10 -20,-4 -40,-9 -58,-16 -19,-6 -34,-13 -45,-20zm1338 34l-148 0 -73 -225 -320 0 -70 225 -148 0 305 -884 152 0 302 884zm-257 -345l-113 -352c-3,-12 -7,-30 -10,-56l-3 0c-3,23 -7,42 -11,56l-112 352 249 0zm878 -539l-267 563 0 321 -135 0 0 -318 -260 -566 154 0 160 379c2,5 7,22 17,52l2 0c3,-14 9,-31 18,-52l168 -379 143 0zm416 899c-117,0 -211,-41 -282,-124 -71,-82 -106,-190 -106,-323 0,-142 36,-256 108,-340 72,-85 170,-128 293,-128 114,0 206,42 276,124 70,82 104,190 104,323 0,144 -35,258 -107,342 -71,85 -167,126 -286,126zm6 -786c-74,0 -135,31 -182,91 -47,61 -70,140 -70,239 0,98 23,177 68,237 45,60 105,91 178,91 78,0 140,-29 185,-86 45,-57 67,-138 67,-240 0,-106 -22,-188 -65,-245 -44,-58 -104,-87 -181,-87z"/>
  </g>
  <rect class="fil3 str0" x="10" y="10" width="15334" height="9506"/>
 </g>
</svg>
