<?xml version="1.0" standalone="no"?>
<!DOCTYPE svg PUBLIC "-//W3C//DTD SVG 20010904//EN"
 "http://www.w3.org/TR/2001/REC-SVG-20010904/DTD/svg10.dtd">
<svg version="1.0" xmlns="http://www.w3.org/2000/svg"
 width="233.000000pt" height="216.000000pt" viewBox="0 0 233.000000 216.000000"
 preserveAspectRatio="xMidYMid meet">
<metadata>
Created by potrace 1.10, written by Peter Selinger 2001-2011
</metadata>
<g transform="translate(0.000000,216.000000) scale(0.100000,-0.100000)"
fill="#000000" stroke="none">
<path d="M1045 2004 c-100 -17 -283 -72 -308 -94 -10 -8 50 -121 70 -133 7 -4
13 -12 13 -18 0 -16 169 -244 228 -307 11 -12 19 -10 52 12 22 14 43 26 48 26
11 0 92 60 92 68 0 4 -22 22 -50 41 -55 38 -213 194 -218 215 -8 35 338 27
411 -9 21 -11 29 -11 31 -2 2 7 13 41 25 77 12 36 23 69 24 74 6 25 -325 65
-418 50z m241 -27 c5 -2 29 -8 54 -11 50 -8 100 -25 100 -35 -1 -3 -7 -17 -15
-31 -8 -14 -14 -35 -15 -47 0 -25 -17 -26 -110 -4 -95 22 -340 4 -340 -25 0
-28 22 -68 56 -100 19 -19 32 -39 29 -44 -3 -6 -1 -10 4 -10 18 0 90 -54 96
-71 3 -9 19 -22 35 -29 36 -15 29 -34 -9 -26 -22 5 -24 5 -7 -5 16 -10 13 -14
-35 -41 -46 -25 -57 -27 -76 -17 -13 7 -23 17 -23 23 0 10 -49 79 -83 116 -29
32 -105 146 -111 168 -4 12 -14 22 -22 22 -8 0 -14 9 -14 19 0 11 -7 26 -15
35 -22 21 -19 34 13 49 43 22 85 30 76 15 -4 -7 1 -6 12 4 19 16 64 31 144 47
46 9 241 8 256 -2z"/>
<path d="M1490 1931 c0 -40 -65 -186 -119 -269 -67 -101 -149 -179 -232 -219
-32 -15 -59 -31 -59 -34 0 -4 11 -14 24 -22 13 -9 30 -22 38 -30 22 -23 75
-47 101 -47 28 0 76 35 167 120 43 41 130 146 130 157 0 6 4 13 9 15 23 9 146
237 134 249 -9 9 -180 99 -188 99 -3 0 -5 -9 -5 -19z m50 -41 c27 0 80 -33 80
-50 0 -13 1 -13 10 0 5 8 12 12 15 9 8 -8 -5 -39 -17 -39 -5 0 -6 -5 -3 -11 4
-5 -1 -19 -10 -29 -11 -12 -15 -26 -11 -37 4 -9 4 -14 0 -10 -9 9 -33 -23 -34
-45 0 -20 -20 -25 -20 -5 0 8 -3 7 -10 -3 -5 -9 -5 -19 2 -27 6 -8 6 -13 1
-13 -5 0 -30 -29 -54 -65 -27 -40 -51 -65 -62 -65 -10 0 -16 -3 -13 -8 7 -12
-17 -38 -42 -46 -12 -4 -22 -12 -22 -17 0 -16 -29 -41 -40 -34 -5 3 -7 0 -4
-8 3 -8 1 -18 -5 -22 -6 -3 -11 2 -12 12 0 14 -2 14 -9 -4 -7 -16 -18 -23 -37
-23 -43 0 -73 11 -73 26 0 8 -7 14 -15 14 -8 0 -15 5 -15 10 0 6 4 10 8 10 5
0 17 8 28 18 10 10 21 18 24 19 24 2 50 17 50 29 0 17 16 19 23 2 3 -7 6 -1 6
15 1 22 6 27 29 28 15 0 22 3 15 5 -13 6 -6 34 9 34 5 0 6 -6 2 -12 -4 -8 -3
-9 2 -5 5 5 9 14 9 20 0 21 69 117 84 117 8 0 12 3 8 6 -3 4 1 21 10 38 10 17
16 37 15 44 -2 6 2 12 8 12 5 0 10 -4 10 -10 0 -5 5 -10 11 -10 7 0 8 7 4 18
-11 28 -11 37 2 35 8 -2 9 6 3 28 -7 24 -6 30 4 26 9 -4 12 3 9 21 -2 15 0 21
3 15 3 -7 14 -13 24 -13z"/>
<path d="M415 1645 c-16 -25 -33 -45 -37 -45 -21 0 -4 -28 25 -42 30 -15 144
-96 178 -128 9 -8 36 -33 60 -56 158 -145 253 -314 289 -514 16 -86 6 -236
-25 -354 -24 -95 -75 -234 -101 -273 -8 -12 -14 -25 -14 -27 0 -9 156 -55 208
-62 l49 -6 17 108 c43 292 47 429 16 608 -30 171 -96 326 -187 436 -113 138
-173 196 -329 315 -60 47 -112 85 -115 85 -2 0 -17 -21 -34 -45z m75 -25 c0
-6 4 -9 9 -5 5 3 12 -4 16 -15 3 -11 9 -19 13 -19 38 6 111 -56 113 -94 0 -20
1 -21 8 -3 5 14 10 16 15 8 4 -7 4 -16 1 -22 -3 -6 1 -7 10 -4 17 7 47 -24 38
-38 -2 -5 3 -16 13 -25 16 -16 16 -16 9 7 -8 25 -8 25 14 6 12 -11 20 -25 17
-32 -3 -8 1 -11 10 -7 7 3 14 1 14 -3 0 -5 22 -34 50 -64 27 -30 53 -66 56
-80 4 -14 18 -35 31 -47 12 -12 23 -29 23 -37 0 -8 7 -22 17 -31 14 -14 14
-18 2 -26 -13 -8 -6 -13 14 -10 4 0 7 -6 7 -14 0 -8 5 -15 10 -15 7 0 7 -7 0
-21 -7 -11 -9 -23 -6 -27 3 -3 6 0 6 7 0 31 20 -5 26 -47 3 -26 13 -62 20 -81
17 -41 18 -65 2 -55 -8 5 -9 0 -5 -17 4 -13 7 -35 7 -49 0 -17 3 -21 8 -12 5
7 8 -45 8 -115 -1 -70 -4 -133 -8 -139 -4 -6 -10 -68 -12 -139 -5 -120 -15
-181 -17 -104 l-1 34 -9 -33 c-7 -24 -7 -38 2 -48 17 -21 3 -28 -51 -25 -18 1
-21 4 -12 10 10 6 9 10 -7 14 -12 3 -21 1 -21 -4 0 -15 -30 -10 -37 7 -4 11
-8 12 -13 4 -4 -7 -13 -9 -20 -5 -9 6 -8 10 4 17 16 9 16 11 -1 31 -10 11 -12
17 -5 13 11 -7 13 -3 16 37 1 6 5 15 10 18 5 4 10 15 11 25 1 11 6 35 10 54 7
29 9 31 16 15 6 -15 8 -11 8 17 1 20 5 39 10 42 5 3 7 14 4 25 -2 10 2 39 11
63 18 54 23 344 6 333 -7 -4 -8 3 -4 19 3 15 2 32 -4 39 -5 6 -12 24 -16 40
-3 15 -11 27 -16 27 -6 0 -10 7 -10 15 0 8 -4 23 -9 33 -13 24 -23 54 -26 74
-1 10 -5 21 -10 25 -4 5 -5 -1 -1 -12 5 -15 4 -17 -4 -9 -6 6 -12 18 -14 27
-1 8 -8 22 -15 31 -7 9 -11 23 -7 32 4 12 1 14 -14 9 -14 -4 -20 -2 -20 8 0 9
-3 17 -7 19 -15 6 -62 76 -56 82 4 3 -4 6 -16 6 -17 0 -21 4 -16 19 3 11 1 22
-4 26 -7 4 -8 -1 -4 -12 4 -11 -8 -5 -34 17 -29 24 -38 37 -30 43 7 5 3 6 -9
2 -14 -4 -24 0 -28 10 -3 8 -13 15 -21 15 -9 0 -13 5 -10 10 3 6 1 10 -5 10
-11 0 -18 4 -64 45 -16 14 -40 28 -53 31 -12 4 -20 10 -17 15 3 5 9 7 14 4 5
-3 11 -1 15 5 3 5 -1 10 -10 10 -9 0 -14 4 -11 8 7 12 66 14 66 2z"/>
<path d="M1813 1567 c-86 -55 -171 -130 -231 -206 -20 -25 -41 -51 -46 -56 -6
-6 -16 -19 -22 -30 -6 -11 -23 -42 -37 -68 -15 -26 -27 -57 -27 -68 0 -11 -4
-18 -9 -15 -5 3 -11 -4 -14 -17 -3 -12 -15 -53 -27 -92 -39 -133 -52 -305 -36
-500 7 -92 53 -323 66 -338 4 -5 16 -4 26 1 11 5 33 15 49 22 53 22 129 62
146 76 8 8 19 14 23 14 25 0 141 107 221 203 66 80 134 214 166 327 42 150 44
367 5 490 -7 25 -19 64 -26 88 -7 23 -17 42 -21 42 -4 0 -10 14 -14 30 -4 17
-22 52 -41 80 -19 27 -34 54 -34 60 0 22 -38 8 -117 -43z m112 3 c10 -11 13
-20 7 -20 -7 0 -12 -4 -12 -10 0 -5 9 -10 19 -10 12 0 21 -10 26 -27 3 -15 14
-38 24 -52 62 -91 100 -372 70 -524 -11 -54 -14 -58 -26 -42 -7 11 -13 14 -13
9 0 -6 5 -15 11 -21 14 -14 7 -59 -9 -55 -6 1 -12 -2 -12 -8 0 -5 4 -10 9 -10
13 0 -2 -49 -28 -97 -11 -21 -25 -51 -31 -67 -7 -19 -15 -26 -26 -22 -11 4
-14 1 -10 -12 4 -12 -3 -30 -19 -48 -14 -16 -25 -32 -25 -36 0 -13 -38 -47
-45 -40 -3 4 -3 -2 1 -11 5 -13 1 -20 -13 -23 -10 -3 -27 -18 -38 -34 -10 -15
-31 -35 -47 -45 -15 -9 -28 -20 -28 -26 0 -5 -7 -9 -15 -9 -8 0 -15 -4 -15
-10 0 -5 -7 -10 -15 -10 -8 0 -15 -3 -15 -7 0 -5 -10 -13 -23 -19 -12 -6 -49
-25 -82 -43 -57 -29 -104 -40 -106 -23 -2 19 -8 50 -17 87 -27 105 -37 203
-37 345 0 163 8 281 22 302 4 7 8 18 8 23 3 51 98 263 135 303 11 12 20 26 20
32 0 6 7 13 15 16 8 4 15 11 15 18 0 6 22 32 49 59 35 34 53 46 67 41 14 -4
16 -3 5 4 -14 10 -7 32 10 32 5 0 17 7 27 16 47 42 79 64 93 64 9 0 22 7 29
15 16 20 23 19 45 -5z"/>
<path d="M1800 1420 c-6 -11 -18 -20 -27 -20 -10 0 -14 -6 -10 -20 3 -11 1
-18 -3 -15 -10 6 -68 -53 -76 -78 -4 -13 -12 -16 -27 -12 -17 5 -19 4 -7 -4
12 -8 12 -12 -1 -28 -9 -10 -27 -42 -39 -70 -13 -29 -27 -53 -32 -53 -4 0 -8
-4 -8 -9 0 -5 -5 -22 -12 -38 -16 -39 -16 -40 -34 -113 -19 -74 -34 -336 -22
-362 4 -9 8 -36 8 -60 0 -24 6 -60 13 -81 26 -74 33 -55 15 46 -32 191 -17
395 42 552 33 89 111 212 185 295 36 40 65 76 65 81 0 16 -19 9 -30 -11z"/>
<path d="M1871 1363 c36 -102 59 -225 59 -315 0 -52 -4 -88 -10 -88 -5 0 -10
-22 -10 -49 0 -28 -4 -53 -10 -56 -5 -3 -10 -13 -10 -21 0 -9 -21 -58 -47
-111 -48 -95 -121 -182 -237 -281 -21 -18 -36 -35 -33 -38 7 -7 49 17 60 33 4
7 15 13 22 13 8 0 15 5 15 10 0 14 51 59 68 60 6 0 12 6 12 13 0 7 10 24 23
37 20 23 61 85 108 168 11 18 19 43 19 55 0 13 4 27 8 33 53 59 48 415 -7 522
-5 9 -14 29 -20 45 -21 53 -30 26 -10 -30z"/>
<path d="M343 1533 c-3 -15 -14 -41 -24 -58 -24 -42 -65 -175 -85 -275 -15
-80 -16 -240 0 -305 2 -11 9 -42 15 -69 7 -27 21 -69 32 -95 12 -25 28 -62 37
-81 14 -30 53 -94 87 -139 36 -50 183 -184 245 -225 41 -28 78 -54 81 -59 12
-17 44 -2 47 23 4 21 2 22 -12 11 -21 -17 -33 -7 -16 14 8 10 9 15 1 15 -6 0
-11 -4 -11 -10 0 -5 -9 -10 -21 -10 -14 0 -19 5 -16 14 4 11 1 13 -10 9 -12
-5 -15 -2 -10 10 4 12 0 15 -21 14 -22 -2 -26 2 -24 18 3 16 1 17 -9 8 -10
-10 -17 -7 -35 12 -12 13 -25 21 -28 18 -6 -6 -10 12 -7 30 0 4 -6 7 -14 7
-18 0 -55 35 -55 52 0 6 -3 9 -6 5 -11 -11 -34 21 -28 37 4 11 1 16 -10 16 -9
0 -25 13 -34 30 -9 16 -22 30 -27 30 -6 0 -16 15 -24 33 -7 17 -27 61 -43 96
-17 34 -31 73 -33 85 -2 11 -11 50 -20 86 -24 94 -25 313 -2 337 4 3 7 16 7
28 0 28 56 203 71 221 6 7 14 25 17 39 l7 26 30 -25 c17 -14 24 -26 17 -26 -7
0 -10 -5 -6 -11 4 -8 9 -8 17 0 17 17 24 13 29 -14 3 -14 -1 -30 -8 -36 -7 -6
-22 -43 -34 -82 -12 -40 -26 -83 -32 -97 -6 -14 -10 -88 -9 -170 1 -117 5
-159 23 -220 12 -41 26 -76 30 -78 4 -2 8 -12 8 -21 0 -25 29 -81 42 -81 5 0
7 -8 4 -17 -4 -10 -4 -14 0 -11 4 4 20 -12 37 -35 17 -23 34 -43 39 -45 4 -2
8 -13 8 -23 0 -11 4 -18 9 -15 4 3 19 -8 31 -24 13 -17 27 -30 32 -30 5 0 21
-11 36 -25 15 -14 39 -31 55 -38 15 -6 27 -15 27 -19 0 -5 7 -8 16 -8 11 0 14
-6 8 -22 -6 -20 -5 -21 10 -9 20 17 33 7 17 -13 -7 -8 -8 -17 -3 -20 8 -5 32
34 32 53 0 5 -11 12 -25 15 -14 4 -25 11 -25 16 0 6 -9 10 -20 10 -11 0 -23 7
-26 15 -4 8 -11 15 -18 15 -14 0 -166 144 -166 158 0 5 -7 12 -15 16 -8 3 -15
15 -15 26 0 11 -4 20 -10 20 -12 0 -74 130 -97 205 -26 87 -26 337 1 415 17
52 48 125 67 161 7 13 -6 27 -61 68 l-70 51 -7 -27z"/>
</g>
</svg>
