<?xml version="1.0" encoding="UTF-8"?>
<!DOCTYPE svg PUBLIC "-//W3C//DTD SVG 1.1//EN" "http://www.w3.org/Graphics/SVG/1.1/DTD/svg11.dtd">
<!-- Creator: CorelDRAW X7 -->
<svg xmlns="http://www.w3.org/2000/svg" xml:space="preserve" width="73.7594mm" height="46.0332mm" version="1.1" style="shape-rendering:geometricPrecision; text-rendering:geometricPrecision; image-rendering:optimizeQuality; fill-rule:evenodd; clip-rule:evenodd"
viewBox="0 0 5745 3586"
 xmlns:xlink="http://www.w3.org/1999/xlink">
 <defs>
  <style type="text/css">
   <![CDATA[
    .str0 {stroke:black;stroke-width:15.5782}
    .fil2 {fill:none}
    .fil0 {fill:#49A4DB}
    .fil1 {fill:#003399}
   ]]>
  </style>
 </defs>
 <g id="Capa_x0020_1">
  <metadata id="CorelCorpID_0Corel-Layer"/>
  <path class="fil0" d="M2182 1487c-184,344 -50,781 301,960 -17,49 -37,99 -61,150 -309,-159 -669,-590 -369,-1202 47,30 90,61 129,92z"/>
  <path class="fil0" d="M3052 2650c-149,-526 -85,-1076 449,-1347 368,495 105,1182 -449,1347zm123 -232c312,-193 423,-595 257,-919 -257,221 -350,559 -257,919z"/>
  <path class="fil0" d="M2994 1140c-116,-32 -240,-34 -356,-6 55,74 128,144 214,206 -48,46 -103,83 -167,109 -76,-93 -225,-284 -277,-402 198,-102 431,-122 643,-60 -15,53 -34,104 -57,153z"/>
  <path class="fil1" d="M2703 2681c-84,-10 -164,-32 -238,-64 265,-517 146,-943 -388,-1268 23,-35 49,-69 77,-100 619,409 664,798 549,1432z"/>
  <path class="fil1" d="M2728 1502c212,-80 332,-282 386,-493 64,24 124,55 179,93 -56,152 -182,335 -305,431 -87,69 -103,119 -260,-31z"/>
  <rect class="fil2 str0" x="8" y="8" width="5730" height="3570"/>
 </g>
</svg>
