<?xml version="1.0" standalone="no"?>
<!DOCTYPE svg PUBLIC "-//W3C//DTD SVG 20010904//EN"
 "http://www.w3.org/TR/2001/REC-SVG-20010904/DTD/svg10.dtd">
<svg version="1.0" xmlns="http://www.w3.org/2000/svg"
 width="280.000000pt" height="180.000000pt" viewBox="0 0 280.000000 180.000000"
 preserveAspectRatio="xMidYMid meet">
<metadata>
Created by potrace 1.10, written by Peter Selinger 2001-2011
</metadata>
<g transform="translate(0.000000,180.000000) scale(0.100000,-0.100000)"
fill="#000000" stroke="none">
<path d="M1300 1655 c-60 -17 -100 -33 -100 -40 0 -14 110 -167 172 -240 5 -5
13 -4 20 3 9 9 8 12 -5 12 -9 0 -17 6 -17 14 0 8 -7 16 -15 20 -8 3 -15 10
-15 16 0 6 4 8 10 5 6 -3 7 1 4 9 -4 9 -1 16 6 16 7 0 10 7 6 16 -6 15 -4 15
11 3 38 -31 63 -63 58 -76 -3 -8 0 -11 6 -8 6 4 8 14 4 22 -4 13 -3 14 9 4 10
-8 16 -9 21 -1 3 5 2 10 -3 10 -4 0 -41 29 -80 65 -70 63 -71 65 -46 71 27 7
164 -1 199 -11 17 -5 23 2 36 38 l16 44 -49 12 c-64 14 -191 13 -248 -4z m239
-22 c9 -16 12 -16 21 -3 9 12 10 10 8 -10 -3 -25 -3 -25 -113 -25 -70 0 -118
-5 -132 -13 l-22 -12 29 -31 c28 -31 30 -39 15 -71 -8 -21 -29 -13 -21 8 3 8
1 14 -3 14 -5 0 -23 18 -40 39 -28 35 -30 41 -18 67 9 21 20 30 42 32 17 2 37
8 45 13 8 4 52 9 97 9 68 0 84 -3 92 -17z"/>
<path d="M1599 1602 c-30 -94 -117 -206 -179 -232 -17 -7 -30 -15 -30 -19 0
-3 16 -17 35 -30 24 -16 42 -21 59 -17 34 9 135 111 177 181 54 89 56 99 17
122 -61 36 -66 35 -79 -5z m57 -16 c19 -14 19 -15 -4 -39 -13 -14 -20 -30 -17
-39 4 -9 1 -19 -4 -23 -6 -3 -9 -11 -5 -16 3 -5 2 -9 -3 -8 -4 1 -11 0 -15 -1
-5 -1 -13 -3 -20 -4 -6 0 -13 -7 -16 -15 -3 -8 0 -11 7 -7 7 5 9 1 5 -9 -5
-13 -9 -13 -22 -3 -13 11 -15 10 -9 -4 4 -13 2 -15 -11 -11 -15 6 -15 5 -3
-10 8 -10 11 -20 7 -24 -3 -3 -6 -2 -6 4 0 8 -8 8 -25 0 -14 -7 -25 -21 -25
-32 0 -12 -3 -16 -8 -9 -4 6 -14 13 -22 16 -11 4 -7 9 13 18 15 7 27 19 27 27
0 7 6 12 13 11 6 -2 11 4 9 12 -2 8 0 12 4 8 11 -12 34 11 27 28 -3 9 1 14 12
14 10 0 13 5 9 12 -4 6 -3 8 4 4 6 -3 13 6 17 25 4 17 9 28 13 25 6 -7 32 13
32 25 0 5 -7 9 -16 9 -9 0 -12 -5 -8 -12 4 -7 3 -8 -4 -4 -9 5 -9 13 -2 27 13
23 20 24 46 5z"/>
<path d="M1030 1475 c-13 -14 -22 -26 -19 -28 136 -95 210 -172 257 -265 31
-64 36 -86 40 -161 5 -95 -20 -214 -58 -279 -15 -24 -16 -34 -7 -37 31 -12
123 -32 128 -29 3 2 12 57 19 123 27 254 -13 401 -149 545 -50 52 -172 156
-183 156 -3 0 -15 -11 -28 -25z m205 -155 c-2 -4 7 -18 21 -31 13 -12 22 -29
20 -35 -3 -7 2 -15 10 -18 8 -3 14 -11 13 -18 0 -10 -2 -10 -6 0 -2 6 -9 10
-14 6 -8 -5 -13 10 -10 30 1 4 -10 19 -24 32 -15 14 -23 29 -19 36 5 8 2 9
-10 5 -25 -10 -40 2 -25 19 10 13 14 12 30 -2 10 -9 17 -20 14 -24z m124 -228
c0 -14 -2 -13 -9 3 -7 17 -9 14 -9 -13 -1 -20 3 -31 9 -27 6 3 10 -4 10 -16 0
-18 -2 -19 -15 -9 -15 12 -21 71 -9 83 10 10 24 -2 23 -21z m7 -197 c-1 -71
-4 -97 -9 -80 -5 14 -15 25 -23 25 -19 0 -18 25 2 55 9 14 12 25 7 25 -6 0 -8
11 -5 25 2 14 8 25 13 25 5 0 9 7 9 15 0 8 2 15 4 15 2 0 3 -47 2 -105z m-30
-78 c18 7 20 -63 2 -70 -10 -4 -10 -8 1 -15 10 -7 3 -10 -26 -9 -39 2 -40 3
-26 24 8 12 11 28 7 34 -4 8 -3 9 4 5 8 -5 12 2 13 21 0 15 3 23 5 16 3 -7 12
-9 20 -6z"/>
<path d="M1764 1426 c-94 -68 -144 -132 -193 -246 -39 -92 -46 -270 -16 -407
10 -46 19 -83 21 -83 2 0 34 14 71 32 77 36 173 125 217 200 60 103 84 274 52
379 -21 68 -72 169 -86 169 -3 0 -33 -20 -66 -44z m75 -5 c12 -11 21 -21 20
-23 -2 -2 1 -14 5 -28 5 -14 8 -29 7 -33 -1 -4 6 -15 15 -24 10 -11 14 -26 10
-45 -3 -16 -1 -28 5 -28 7 0 9 -30 7 -84 -2 -46 -6 -82 -10 -79 -5 2 -8 -12
-8 -32 0 -22 -6 -38 -15 -41 -8 -4 -13 -10 -10 -14 8 -12 -16 -71 -26 -64 -5
3 -9 -2 -9 -10 0 -24 -137 -155 -183 -176 -44 -20 -57 -18 -57 6 0 8 -5 12
-10 9 -6 -4 -10 5 -9 22 1 15 -4 62 -10 103 -12 76 -6 175 11 197 5 7 7 21 3
32 -4 13 0 23 12 31 12 7 14 13 6 16 -14 6 17 84 34 84 7 0 10 7 7 15 -4 8 -2
15 4 15 5 0 13 11 16 25 4 14 13 25 21 25 7 0 17 5 21 12 5 7 2 8 -7 3 -11 -6
-11 -5 -2 5 12 13 37 4 28 -11 -4 -5 -1 -9 4 -9 6 0 -4 -20 -22 -44 -17 -24
-36 -41 -41 -38 -5 3 -6 0 -2 -6 11 -18 -4 -37 -16 -21 -6 10 -7 7 -3 -10 5
-15 2 -27 -6 -32 -9 -5 -10 -9 -2 -9 6 0 9 -9 6 -20 -3 -11 -9 -17 -15 -14 -5
3 -6 -5 -2 -20 3 -14 2 -26 -2 -26 -5 0 -7 -22 -6 -49 2 -27 -1 -57 -6 -68 -8
-13 -5 -37 7 -83 14 -52 22 -66 39 -68 13 -2 22 2 22 10 0 9 2 10 8 1 4 -7 25
8 59 43 29 30 51 54 48 54 -2 0 7 21 20 46 14 26 25 55 25 65 0 9 6 19 13 21
13 5 17 155 6 233 -7 52 -47 98 -72 83 -10 -5 -25 -7 -34 -4 -13 5 -14 4 -3
-9 18 -21 6 -30 -14 -10 -12 13 -13 19 -3 30 6 7 15 11 20 8 4 -2 10 2 13 11
3 8 19 18 35 21 16 4 27 11 23 16 -9 15 1 11 25 -10z m-19 -127 c47 -155 5
-310 -115 -422 l-59 -55 -9 29 c-5 16 -9 76 -9 134 0 104 14 163 58 248 16 32
96 131 106 132 4 0 16 -30 28 -66z"/>
<path d="M980 1385 c-87 -202 -59 -390 80 -549 28 -31 141 -116 155 -116 3 0
10 10 16 23 12 22 12 22 -9 4 -20 -18 -20 -18 -27 2 -3 12 -17 24 -31 27 -13
3 -24 9 -24 13 0 4 -11 14 -25 21 -14 7 -25 19 -25 25 0 7 -14 24 -31 38 -19
16 -28 30 -23 38 4 8 3 10 -4 5 -7 -4 -12 -2 -12 4 0 6 -7 18 -15 26 -8 9 -15
27 -15 40 0 17 -4 23 -12 18 -8 -5 -9 0 -6 14 4 13 2 20 -3 16 -6 -3 -8 15 -5
48 4 42 3 45 -3 18 l-8 -35 -2 42 c0 23 4 45 9 48 6 3 9 14 9 23 -1 15 -2 15
-6 0 -2 -10 -9 -18 -15 -18 -5 0 -7 7 -4 16 3 9 6 32 6 52 0 28 3 33 10 22 8
-11 9 -8 4 13 -4 16 -2 27 4 27 6 0 13 18 17 41 4 22 13 43 21 46 16 6 19 39
4 48 -6 3 -19 -14 -30 -40z"/>
<path d="M1030 1389 c0 -5 5 -7 10 -4 6 3 10 -3 10 -14 0 -12 -4 -21 -9 -21
-4 0 -16 -25 -26 -56 -31 -100 -3 -298 50 -351 8 -8 15 -18 15 -23 0 -5 6 -15
14 -22 68 -66 105 -96 111 -90 5 4 6 0 3 -9 -5 -12 -1 -15 18 -11 26 5 33 22
9 22 -8 0 -15 4 -15 8 0 4 -14 16 -31 26 -67 39 -130 132 -155 225 -21 82 -18
152 12 238 21 62 24 77 13 84 -19 12 -29 11 -29 -2z"/>
<path d="M2400 421 c-8 -6 -18 -7 -22 -5 -5 3 -20 -21 -35 -53 l-27 -58 -24
57 c-18 42 -29 56 -43 55 -11 -1 -19 -3 -19 -4 0 -2 16 -35 35 -73 20 -40 35
-84 35 -105 0 -27 4 -35 18 -35 15 0 17 6 14 33 -4 34 41 140 76 180 17 19 14
21 -8 8z"/>
<path d="M197 413 c-4 -3 -7 -53 -7 -110 0 -96 1 -103 20 -103 19 0 20 7 20
110 0 85 -3 110 -13 110 -8 0 -17 -3 -20 -7z"/>
<path d="M287 412 c-3 -4 -5 -53 -6 -109 -2 -98 -1 -103 19 -103 18 0 20 6 20
73 0 45 -5 78 -12 86 -10 11 -10 13 0 7 7 -4 12 -2 12 5 0 7 3 9 7 5 4 -4 8
-13 8 -20 0 -7 20 -44 45 -84 34 -54 50 -72 68 -72 21 0 22 3 22 104 0 82 -3
105 -15 109 -22 9 -26 -5 -21 -93 3 -68 1 -79 -10 -69 -8 6 -14 15 -14 19 0 4
-17 36 -38 71 -34 56 -75 90 -85 71z"/>
<path d="M543 412 c-22 -3 -23 -7 -23 -108 0 -92 2 -104 18 -104 15 0 17 10
15 97 l-3 98 36 -98 c25 -68 41 -97 51 -95 14 3 73 136 73 165 0 9 3 13 6 10
4 -4 6 -45 5 -92 -2 -71 0 -85 13 -85 13 0 16 16 16 100 0 55 0 103 0 107 0 4
-9 7 -21 7 -20 0 -42 -40 -83 -149 -6 -16 -14 -3 -40 62 -18 45 -34 84 -37 86
-2 1 -14 1 -26 -1z"/>
<path d="M820 412 c-23 -4 -16 -174 8 -195 30 -26 74 -29 110 -7 l32 20 0 85
c0 96 0 99 -17 101 -10 2 -13 -20 -13 -79 0 -90 -4 -101 -38 -109 -43 -12 -61
18 -64 107 -2 65 -6 80 -18 77z"/>
<path d="M1030 418 c-1 -2 -2 -51 -3 -111 -2 -96 0 -107 16 -107 15 0 17 11
17 86 0 53 -4 83 -10 79 -6 -3 -7 1 -4 10 5 11 18 -3 45 -50 57 -99 78 -125
100 -125 18 0 19 8 19 109 0 96 -2 109 -17 107 -14 -2 -16 -15 -14 -86 1 -46
5 -89 8 -95 3 -5 0 -5 -7 2 -7 6 -17 20 -24 32 -51 91 -79 132 -95 141 -19 10
-31 13 -31 8z"/>
<path d="M1313 410 c-29 -12 -63 -67 -63 -103 0 -74 65 -125 134 -106 47 13
70 48 70 111 0 39 -5 54 -25 74 -28 27 -82 39 -116 24z m81 -41 c21 -16 26
-29 26 -63 0 -68 -55 -103 -103 -65 -43 33 -35 123 13 142 26 10 37 8 64 -14z"/>
<path d="M1495 410 c-2 -3 -3 -52 -3 -108 l0 -102 64 0 c50 0 64 3 64 15 0 11
-12 15 -45 15 -44 0 -45 1 -45 33 0 30 2 32 37 32 20 0 38 6 40 13 3 8 -8 12
-36 12 -40 0 -41 1 -41 33 0 32 1 32 40 29 34 -3 40 -1 40 14 0 16 -8 19 -56
19 -31 0 -57 -2 -59 -5z"/>
<path d="M1657 412 c-2 -4 -4 -53 -5 -109 0 -96 1 -103 20 -103 18 0 19 6 16
85 -2 47 0 85 5 85 4 0 7 -4 7 -9 0 -5 22 -43 50 -85 35 -53 56 -76 70 -76 19
0 20 6 20 111 0 100 -2 110 -17 107 -16 -3 -18 -15 -16 -88 3 -97 5 -97 -70
19 -37 57 -70 82 -80 63z"/>
<path d="M1922 410 c-29 -12 -47 -52 -35 -75 6 -9 27 -27 49 -39 48 -26 58
-62 21 -71 -14 -4 -34 -2 -45 4 -28 15 -32 14 -32 -8 0 -13 10 -20 35 -24 50
-8 94 9 102 41 8 33 -5 52 -55 80 -68 38 -47 84 29 67 29 -7 30 -6 20 14 -13
23 -48 27 -89 11z"/>
<path d="M2113 402 c-3 -9 -21 -57 -39 -106 -19 -48 -34 -90 -34 -92 0 -2 9
-4 20 -4 12 0 22 9 26 24 5 20 13 25 50 28 40 3 45 1 53 -23 5 -14 18 -29 30
-32 12 -3 21 -4 21 -4 0 1 -18 49 -39 106 -29 77 -44 107 -60 113 -16 6 -23 3
-28 -10z m40 -59 c3 -16 9 -36 12 -45 6 -15 1 -18 -28 -18 l-35 0 16 50 c17
53 26 56 35 13z"/>
<path d="M2473 410 c-30 -12 -63 -67 -63 -105 0 -76 76 -129 145 -101 43 18
65 52 65 98 0 90 -68 140 -147 108z m87 -40 c25 -25 28 -101 4 -124 -20 -21
-73 -20 -96 1 -27 25 -24 88 7 118 29 30 58 32 85 5z"/>
</g>
</svg>
