<?xml version="1.0" encoding="UTF-8"?>
<svg version="1.1" viewBox="0 0 1600 1024" width="1280" height="1280" xmlns="http://www.w3.org/2000/svg">
<path transform="translate(0)" d="m0 0h1600v1024h-1600v-1024z" fill="#FAFDFF"/>
<path transform="translate(1010,240)" d="m0 0c1.94 2.36 1.94 2.36 4 5.75 0.382 0.623 0.763 1.25 1.16 1.89 0.841 1.38 1.68 2.76 2.5 4.14 1.38 2.28 2.79 4.54 4.21 6.79 32.8 52.6 47.6 117 39.1 178-0.124 0.905-0.247 1.81-0.375 2.74-5.8 41-19.2 89.8-46.6 122-1.09 1.55-2.17 3.1-3.25 4.66-5.57 8.05-11.8 15.4-18.3 22.7-1.27 1.44-2.53 2.89-3.78 4.34-3.63 4.2-7.39 7.93-11.6 11.5-2.18 1.92-4.16 3.95-6.17 6.05-5.81 5.87-12.3 10.8-18.9 15.8-0.934 0.709-0.934 0.709-1.89 1.43-22.5 17.1-56.6 41.6-86.1 41.6-11.5-36.1-17.8-74.3-21-112-0.0921-0.942-0.184-1.88-0.279-2.85-7.54-83.4 12-173 66.3-238 0.837-1.02 1.67-2.04 2.54-3.09 3.98-4.84 7.99-9.51 12.5-13.9 1.13-1.15 2.26-2.3 3.38-3.45 7.2-7.33 14.4-14.3 22.6-20.5 0.556-0.422 1.11-0.844 1.69-1.28 12.2-9.18 24.8-17.6 37.8-25.6 0.733-0.452 1.47-0.905 2.22-1.37 12.7-7.75 12.7-7.75 18.3-7.75z" fill="#4DA5DB"/>
<path transform="translate(590,280)" d="m0 0c4.37 0.877 7.18 3.24 10.6 6 0.934 0.75 0.934 0.75 1.89 1.51 1.27 1.02 2.53 2.04 3.79 3.06 1.51 1.22 3.03 2.43 4.56 3.63 12.3 9.81 23.5 21 34.7 32.1 0.824 0.811 1.65 1.62 2.5 2.46 5.44 5.43 10.3 11.1 15 17.2 1.19 1.5 2.37 3 3.56 4.5 10.4 13.5 10.4 13.5 10.4 16.5h2c1.08 1.44 1.08 1.44 2.25 3.49 0.439 0.76 0.877 1.52 1.33 2.3 0.469 0.832 0.938 1.66 1.42 2.52 0.729 1.28 0.729 1.28 1.47 2.59 19.2 34 33.5 71.1 33.7 111 0.00706 0.896 0.0141 1.79 0.0214 2.72 0.23 37.9 0.23 37.9-3.22 56.7-0.298 1.64-0.298 1.64-0.602 3.3-3.84 20.4-8.34 41.9-17.4 60.7-0.33-0.66-0.66-1.32-1-2h-3c-0.33 0.66-0.66 1.32-1 2-0.345-0.42-0.691-0.84-1.05-1.27-2.74-2.43-5.92-3.8-9.2-5.35-25.3-12.4-48.6-29.8-66.9-51.3-1.69-1.97-3.42-3.91-5.14-5.85-29-33.1-51.5-82.4-50.7-127 0.223-4.22 0.223-4.22-1-8.12-0.0954-1.49-0.131-2.98-0.133-4.46-0.00129-0.882-0.00258-1.76-0.00391-2.67 0.0058-1.39 0.0058-1.39 0.0117-2.8-0.00387-0.92-0.00773-1.84-0.0117-2.79 0.00129-0.884 0.00258-1.77 0.00391-2.68 0.00113-0.809 0.00226-1.62 0.00342-2.45 0.129-2.14 0.129-2.14 1.13-5.14 0.18-2.57 0.323-5.12 0.438-7.69 0.299-5.7 1.02-10.8 2.56-16.3 0.279-2.18 0.488-4.34 0.656-6.53 0.496-3.56 1.44-7 2.34-10.5 0.166-0.663 0.332-1.33 0.503-2.01 4.07-16.2 9.75-31.5 18-46 2.64-4.8 3.43-8.55 3.52-14 0.33-0.66 0.66-1.32 1-2 0.33 0.33 0.66 0.66 1 1 0.66-0.66 1.32-1.32 2-2v-3l-2-1z" fill="#FAFDFF"/>
<path transform="translate(578 223)" d="m0 0c5.79 1.3 10.4 5.78 14.9 9.31 1.56 1.09 3.12 2.18 4.69 3.25 6.58 4.58 13 9.43 19.3 14.3 1.79 1.36 3.59 2.71 5.39 4.06 7.62 5.76 14.9 11.9 22.1 18.1 1.21 1.06 2.43 2.1 3.65 3.15 4.43 3.82 8.73 7.79 13 11.8 0.595 0.551 1.19 1.1 1.8 1.67 3.41 3.17 6.73 6.4 10 9.71 0.739 0.715 1.48 1.43 2.24 2.17 1.03 1 1.03 1 2.07 2.02 0.697 0.674 1.39 1.35 2.11 2.04 1.57 1.77 1.57 1.77 1.57 3.77h2v2c0.99 0.33 1.98 0.66 3 1 3 3.44 3 3.44 3 6 0.874 0.356 0.874 0.356 1.77 0.719 2.72 1.56 4.08 3.29 5.98 5.78 2.97 3.87 2.97 3.87 6.05 7.64 33.1 39.4 52.9 88.9 61.4 139 0.151 0.888 0.302 1.78 0.458 2.69 0.476 2.97 0.892 5.95 1.29 8.93 0.177 1.26 0.355 2.51 0.537 3.81 2.06 15.9 1.9 31.9 1.9 47.8 7.64e-4 0.756 0.00153 1.51 0.00232 2.29 0.0226 27.1-1.47 53.6-5.09 80.5-0.341 2.54-0.67 5.08-0.995 7.63-2.41 18.8-5.51 37.4-9.35 56-8.11-0.504-15.9-1.58-23.8-3.31-1.04-0.223-2.09-0.446-3.16-0.676-8.09-1.75-16.1-3.71-24-6.01-1.14-0.317-2.27-0.634-3.45-0.961-17.9-5.2-17.9-5.2-20.5-9.73-0.0556-3.66 1.6-6.58 3.15-9.81 0.745-1.62 1.49-3.24 2.23-4.87 0.412-0.894 0.823-1.79 1.25-2.71 15.8-34.7 27.5-70 32.3-108 0.155-1.19 0.155-1.19 0.312-2.4 0.993-8.99 0.909-18 0.928-27.1 0.00963-2.86 0.0407-5.72 0.0723-8.58 0.1-17.2-1.92-33.9-6.12-50.6-0.259-1.05-0.517-2.09-0.784-3.17-6.46-25.6-17-49.4-31.5-71.5-0.907-1.62-0.907-1.62-0.907-3.62h-2c-1.23-1.58-1.23-1.58-2.62-3.81-5.21-8.06-10.7-15.7-17.2-22.8-1.21-1.33-2.41-2.66-3.57-4.02-4.77-5.57-9.87-10.8-15.1-16-1.45-1.44-2.89-2.89-4.33-4.34-5.22-5.23-10.5-10.3-16.2-15-0.666-0.562-1.33-1.12-2.02-1.7-16.6-14.1-16.6-14.1-34.8-25.9-0.722-0.474-1.44-0.949-2.19-1.44v-2c-0.71-0.259-1.42-0.518-2.15-0.785-3.04-1.3-5.64-2.86-8.41-4.65-0.929-0.597-1.86-1.19-2.82-1.81-2.27-1.52-4.44-3.11-6.62-4.75-1.66-1.02-3.32-2.02-5-3 1.58-10.2 10.7-19 17-27 0.697-0.947 1.39-1.89 2.11-2.87 1.89-2.13 1.89-2.13 4.95-2.44z" fill="#003281"/>
<path transform="translate(549,261)" d="m0 0c3.65 0.45 6.21 1.5 9.29 3.48 1.19 0.754 1.19 0.754 2.4 1.52 0.825 0.536 1.65 1.07 2.5 1.62 0.848 0.544 1.7 1.09 2.57 1.65 21.2 13.7 21.2 13.7 23.2 17.7 0.0834 6.57-1.84 11.4-5.12 16.9-11.1 19.9-18.6 43.4-20.7 66.1-0.165 1.78-0.418 3.54-0.68 5.31-0.559 4.05-0.9 8.1-1.22 12.2-0.281 2.45-0.281 2.45-1.28 5.45-0.0923 1.5-0.131 2.99-0.133 4.49-0.00129 0.87-0.00258 1.74-0.00391 2.64 0.0058 1.36 0.0058 1.36 0.0117 2.75-0.00387 0.898-0.00773 1.8-0.0117 2.72-0.0113 4.99-0.0113 4.99 0.645 9.91 0.491 2.49 0.502 4.58 0.453 7.11-0.0522 5.65 0.703 11 1.66 16.6 0.18 1.04 0.359 2.08 0.544 3.15 7.39 41.2 24.6 76.4 50.8 109 0.951 1.23 0.951 1.23 1.92 2.48 2.21 2.69 4.59 5.09 7.08 7.52 0.755 0.779 1.51 1.56 2.29 2.36 16.4 16.8 39.1 34.8 61.5 43.1 3.21 1.59 3.21 1.59 4.75 3.93 1.41 7.99-4.67 17.3-8.02 24.3-2 4.37-3.68 8.83-5.34 13.3-1.22 3.09-2.65 6.02-4.18 8.97-19.6-0.889-41.2-20.4-56-32-0.904-0.703-1.81-1.41-2.74-2.13-1.46-1.14-2.92-2.28-4.38-3.42-2.34-1.79-4.74-3.47-7.18-5.11-1.87-1.47-3.52-3.1-5.19-4.8-1.78-1.81-3.59-3.58-5.4-5.35-7.13-7.02-14.1-14-20.3-21.9-1.66-2.11-3.39-4.09-5.2-6.07-8.19-9.28-15.2-19.7-21.6-30.2-0.661-1.01-1.32-2.02-2-3.06-17.4-27-27.1-58.6-33-89.9-0.179-0.935-0.359-1.87-0.543-2.83-8.23-44.9-0.35-92.5 14.5-135 0.318-0.928 0.636-1.86 0.963-2.81 14.8-43 14.8-43 23-51.2z" fill="#4DA5DB"/>
<path transform="translate(985,303)" d="m0 0c4.3 3.55 5.91 7.78 7.94 12.8 0.348 0.851 0.697 1.7 1.06 2.58 16.2 40.1 21.5 86 13 129-0.193 0.985-0.387 1.97-0.586 2.98-5.17 25.4-14.2 51.2-28.4 73-0.558 0.882-1.12 1.76-1.69 2.67-8.2 12.7-17.2 25.1-28.3 35.3-0.825 0.825-1.65 1.65-2.5 2.5-0.825 0.825-1.65 1.65-2.5 2.5-0.597 0.632-1.19 1.26-1.81 1.91-10.2 10.6-22.1 18.9-34.2 27.1-5.24-4.24-6.32-8.33-7.62-14.8-0.205-0.957-0.411-1.91-0.622-2.9-2.26-11-3.6-22.1-4.75-33.3-0.0957-0.802-0.191-1.6-0.29-2.43-1.05-9.65-0.953-19.4-0.96-29.1-0.00101-0.953-0.00201-1.91-0.00305-2.89 0.0144-20.2 1.03-40.1 6.24-59.7 0.852-3.24 1.58-6.48 2.26-9.76 6.85-31.8 21.2-61.6 39.8-88.1 0.69-0.986 1.38-1.97 2.09-2.99 9.67-13.5 20.6-25.8 32.3-37.6 0.711-0.716 1.42-1.43 2.15-2.17 1-1 1-1 2.03-2.02 0.904-0.902 0.904-0.902 1.83-1.82 1.55-1.42 1.55-1.42 3.55-2.42z" fill="#FAFDFF"/>
<path transform="translate(863 136)" d="m0 0c2.26 0.623 4.53 1.22 6.81 1.79 0.98 0.246 1.96 0.492 2.97 0.746 0.851 0.208 1.7 0.415 2.58 0.629 2.6 0.968 3.73 1.4 5.17 3.81-0.035 7.53-3.1 14.3-5.75 21.2-0.646 1.73-0.646 1.73-1.3 3.49-2.82 7.49-5.82 14.9-8.95 22.3-5.79-0.413-11.2-1.48-16.8-2.94-5.78-1.5-11.5-2.73-17.4-3.63-2.68-0.418-5.31-0.95-7.96-1.5-5.69-1.07-11.4-1.35-17.2-1.6-5.47-0.245-5.47-0.245-7.66-1.34-22-1.28-44.3 1.99-66 5 2.33 4.85 2.33 4.85 5.46 9.19 0.465 0.546 0.93 1.09 1.41 1.65 0.745 0.85 0.745 0.85 1.5 1.72 0.522 0.602 1.04 1.2 1.58 1.82 8.04 9.15 16.7 17.8 26 25.6 0.843 0.721 1.69 1.44 2.55 2.18 11.1 9.36 22.5 18.3 34.5 26.4 2.41 1.68 4.7 3.49 6.96 5.37-0.205 3.76-0.989 4.99-3.63 7.76-1.15 0.991-2.32 1.97-3.49 2.93-0.947 0.785-0.947 0.785-1.91 1.59-10.3 8.43-21.1 15-33.1 20.9-0.996 0.494-1.99 0.989-3.02 1.5-1.42 0.672-1.42 0.672-2.86 1.36-1.26 0.604-1.26 0.604-2.55 1.22-2.93 0.887-4.54 0.663-7.44-0.262-4.51-3.26-7.8-6.99-11.1-11.4-3.84-5.01-7.79-9.87-11.9-14.6-5.59-6.44-10.8-13.1-15.9-19.9-0.645-0.831-1.29-1.66-1.95-2.52-0.552-0.715-1.1-1.43-1.67-2.17-0.467-0.602-0.933-1.2-1.41-1.82-0.961-1.49-0.961-1.49-0.961-3.49-0.598-0.227-1.2-0.454-1.81-0.688-2.8-1.68-3.52-3.51-5.19-6.31-1.62-2.11-3.27-4.18-4.94-6.25-9.84-12.4-18.6-25.4-26.9-38.8-1.94-3.12-3.94-6.21-5.94-9.29-1.42-2.21-2.83-4.42-4.25-6.62-0.625-0.963-1.25-1.93-1.89-2.92-0.55-0.873-1.1-1.75-1.67-2.64-0.476-0.744-0.951-1.49-1.44-2.25-1.17-2.56-1.07-4.4-0.996-7.18 0.575-0.229 1.15-0.459 1.74-0.695 4.82-1.93 9.64-3.86 14.5-5.81 2.16-0.872 4.33-1.74 6.49-2.62 1.09-0.442 2.18-0.884 3.3-1.34 5.3-2.13 10.5-4.06 16-5.54 2.23-0.786 4.46-1.58 6.69-2.38 8.48-2.93 17.2-4.55 26-6.17 2.27-0.441 4.52-0.945 6.77-1.47 41.8-9.42 87.1-5.27 128 6.04z" fill="#4DA5DB"/>
<path transform="translate(9,1016)" d="m0 0c47.4-0.0055 94.8-0.0108 142-0.0159 0.927-9.98e-5 1.85-2e-4 2.81-3.02e-4 99.3-0.0107 199-0.0199 298-0.0262 2.21-1.39e-4 4.41-2.79e-4 6.62-4.18e-4 46.3-0.00292 92.6-0.00564 139-0.00812 23.3-0.00125 46.5-0.00253 69.8-0.00385 3.51-1.99e-4 7.02-3.97e-4 10.5-5.95e-4 54-0.00306 108-0.00697 162-0.0133 1.16-1.37e-4 2.32-2.74e-4 3.52-4.15e-4 18.7-0.00221 37.5-0.0045 56.2-0.00679 54-0.0066 108-0.0127 162-0.0153 1.11-5.35e-5 2.22-1.07e-4 3.36-1.62e-4 24.4-0.00117 48.7-0.00206 73.1-0.0027 9.8-2.62e-4 19.6-5.62e-4 29.4-8.76e-4 1.07-3.34e-5 2.15-6.69e-5 3.25-1.01e-4 34.6-0.0011 69.1-0.00537 104-0.0113 34.8-0.00596 69.6-0.00882 104-0.00734 4.81 2.03e-4 9.62 3.7e-4 14.4 5.16e-4 0.943 2.99e-5 1.89 5.98e-5 2.86 9.05e-5 14.9 3.81e-4 29.9-0.00261 44.8-0.00699 14.7-0.00424 29.4-0.00493 44.1-0.00182 8.61 0.00172 17.2 6.9e-4 25.8-0.00439 5.72-0.0031 11.4-0.00256 17.2 9.16e-4 3.24 0.00187 6.48 0.00165 9.73-0.00193 32.7-0.0338 32.7-0.0338 39.2 2.13v6h-1568v-8z" fill="#FBFDFF"/>
<path transform="translate(888,146)" d="m0 0c7.21 0.324 12.8 2.24 19.4 5.19 0.928 0.409 1.86 0.817 2.81 1.24 6.47 2.88 12.7 6 18.8 9.57 1.21 0.67 2.42 1.34 3.62 2 1.27 0.707 2.54 1.41 3.81 2.12 0.592 0.325 1.18 0.65 1.79 0.985 3.42 1.93 6.45 3.69 8.77 6.89 0.509 5.49-0.66 9.33-3.15 14.1-0.328 0.657-0.656 1.31-0.994 1.99-1.06 2.12-2.15 4.22-3.23 6.32-0.742 1.46-1.48 2.92-2.23 4.37-4.64 9.06-9.45 17.9-15.2 26.4-1.39 2.06-2.74 4.14-4.09 6.22-6.64 10.2-13.7 20-21.1 29.6-0.746 0.962-1.49 1.92-2.26 2.91-6.46 8.1-13.6 15.6-20.7 23.1-0.536 0.559-1.07 1.12-1.62 1.69-5.85 6.06-11.9 11.7-18.5 17-2.11 1.7-4.15 3.42-6.17 5.21-23.1 20.4-23.1 20.4-34.7 21.1-0.654 0.124-1.31 0.248-1.98 0.375-9.83 1.18-20.8-6.39-28.2-12.2-0.673-0.567-1.35-1.13-2.04-1.72-1.9-1.65-1.9-1.65-4.84-3.28-0.959-0.588-0.959-0.588-1.94-1.19v-2c-0.572-0.26-1.14-0.521-1.73-0.789-2.45-1.31-4.4-2.79-6.52-4.59-0.706-0.585-1.41-1.17-2.14-1.77-1.61-1.85-1.61-1.85-1.61-5.85 0.944-0.352 1.89-0.704 2.86-1.07 8.57-3.27 16.3-7.12 24.1-11.9 1.13-0.637 2.27-1.27 3.43-1.93 3.51-2 6.84-4.22 10.1-6.57 0.89-0.637 0.89-0.637 1.8-1.29 9.82-7.14 20.6-15.3 27.6-25.2 2.38-3.35 5.1-6.1 8-9 22.7-26.5 38.4-60.8 46.4-94.6 0.621-2.43 0.621-2.43 1.62-3.43z" fill="#003282"/>
<path transform="translate(1449 782)" d="m0 0c13.7 9.85 20.8 22.3 24 38.9 1.92 13.8 2.36 30-3.61 42.8-0.424 1.02-0.848 2.03-1.29 3.08-6.22 13.8-16.4 22.9-30.5 28.3-15 5.23-34.2 4.04-48.5-2.62-14.5-7.95-23.4-19.4-28.8-34.9-4.99-18.7-2.04-39.7 6.64-56.8 7.94-13.4 20.7-22.1 35.6-26.3 16.3-2.89 32.5-1.51 46.6 7.61z" fill="#003687"/>
<path transform="translate(813,787)" d="m0 0c9.36 9.67 15.6 21.5 17.6 34.8 0.67 5.25 0.67 5.25 2.38 10.2 0.346 5.09 0.0193 10-1 15-0.0993 0.692-0.199 1.38-0.301 2.1-1.9 11.8-6.93 21.9-14.7 30.9-0.619 0.887-1.24 1.77-1.88 2.69-3.21 3.5-7.1 5.83-11.1 8.31-0.798 0.522-1.6 1.04-2.42 1.58-2.82 1.55-5.33 2.27-8.46 2.98-3.31 0.765-6.46 1.55-9.69 2.62-12.6 2.97-28.2-0.697-39.2-7.24-14.6-9.51-23.2-21.7-27.2-39-3.69-18.5-0.16-38.1 9.92-54 1.91-2.48 3.89-4.73 6.08-6.97 0.688-0.715 1.38-1.43 2.09-2.17 21.3-20.5 55.8-20.7 77.9-1.83z" fill="#52A9DF"/>
<path transform="translate(331 775)" d="m0 0c1.23-0.0464 2.47-0.0928 3.74-0.141 1.15-0.049 2.31-0.098 3.5-0.148 3.07 0.523 3.07 0.523 5.11 2.69 1.99 2.9 3.12 5.42 4.25 8.75 0.397 1.14 0.794 2.29 1.2 3.47 0.413 1.22 0.825 2.43 1.25 3.69 0.885 2.55 1.78 5.1 2.67 7.65 0.221 0.631 0.441 1.26 0.669 1.91 1.83 5.22 3.82 10.4 5.91 15.5 3.62 8.88 7.08 17.8 10.5 26.8 0.788 2.06 1.58 4.12 2.37 6.17 0.748 1.95 1.48 3.9 2.21 5.86 0.34 0.899 0.679 1.8 1.03 2.72 0.294 0.793 0.587 1.59 0.89 2.4 0.972 2.28 0.972 2.28 4 3.95 2.79-6.53 5.43-13.1 7.88-19.8 2.51-6.81 5.33-13.4 8.32-20 2.49-5.65 4.62-11.4 6.81-17.2 1.91-5.01 3.83-10 5.77-15 0.58-1.5 1.16-3.01 1.73-4.51 0.838-2.2 1.69-4.4 2.54-6.6 0.253-0.676 0.506-1.35 0.767-2.05 0.646-1.64 1.41-3.23 2.19-4.81 4.6-1.53 9.19-1.18 14-1.19 1.01-0.0122 2.02-0.0245 3.06-0.0371 0.969-0.00193 1.94-0.00387 2.94-0.00586 0.887-0.00411 1.77-0.00822 2.69-0.0125 2.31 0.243 2.31 0.243 5.31 2.24 0.356 2.48 0.356 2.48 0.328 5.62-0.00516 1.18-0.0103 2.37-0.0156 3.59-0.0206 1.25-0.0412 2.5-0.0625 3.79-0.00516 1.16-0.0103 2.31-0.0156 3.5-0.0514 6.06-0.208 12.1-0.475 18.2-0.533 12.1-0.848 24.2-0.822 36.3 0.00213 1.01 0.00213 1.01 0.0043 2.04 0.0121 4.8 0.0343 9.6 0.0582 14.4 0.0205 4.22 0.0396 8.43 0.051 12.7 0.0075 2.6 0.0195 5.19 0.0366 7.79 0.0033 1.16 0.00661 2.31 0.01 3.51 0.00524 1.02 0.0105 2.03 0.0159 3.08-0.114 2.54-0.114 2.54-1.11 5.54-2.23 0.0814-4.46 0.139-6.69 0.188-1.86 0.0522-1.86 0.0522-3.76 0.105-3.9-0.322-5.54-0.842-8.55-3.29-0.595-2.85-0.595-2.85-0.552-6.37 0.00361-1.31 0.00721-2.63 0.0109-3.98 0.0289-1.44 0.0581-2.87 0.0877-4.31 0.0119-1.47 0.0214-2.94 0.0286-4.41 0.0248-3.87 0.0787-7.74 0.139-11.6 0.0804-5.46 0.121-10.9 0.167-16.4 0.0243-2.91 0.0595-5.82 0.103-8.72 0.0162-1.31 0.0324-2.62 0.0491-3.97 0.0173-1.16 0.0346-2.32 0.0524-3.51 0.105-2.69 0.105-2.69-1.09-4.73-0.232-2.55-0.419-5.07-0.562-7.62-0.0432-0.706-0.0864-1.41-0.131-2.14-0.106-1.74-0.207-3.49-0.307-5.23-2.31 2.86-3.79 5.55-5.13 8.97-0.391 0.99-0.782 1.98-1.19 3-0.416 1.07-0.831 2.14-1.26 3.24-0.441 1.12-0.881 2.24-1.33 3.39-1.41 3.59-2.82 7.18-4.22 10.8-10.9 27.7-10.9 27.7-15.9 40-0.362 0.901-0.724 1.8-1.1 2.73-4.39 10.8-4.39 10.8-7.72 13.2-3.01 0.946-5.04 1.13-8.19 0.688-5.42-3.67-7.46-7.26-9.69-13.3-0.282-0.721-0.563-1.44-0.854-2.19-0.839-2.16-1.65-4.33-2.46-6.5-1.79-4.79-3.6-9.57-5.5-14.3-0.244-0.61-0.489-1.22-0.74-1.85-1.78-4.42-3.58-8.84-5.38-13.3-0.958-2.34-1.92-4.68-2.88-7.02-0.479-1.17-0.958-2.34-1.45-3.54-3.16-7.73-6.15-15.5-8.93-23.4-0.838-2.78-0.838-2.78-3.12-3.65-0.181 5.1-0.346 10.2-0.5 15.3-0.024 0.794-0.048 1.59-0.0728 2.41-0.524 18-0.489 35.9-0.39 53.9 0.00634 1.62 0.00634 1.62 0.0128 3.27 0.00823 2.05 0.0207 4.09 0.0378 6.14 0.00326 0.903 0.00653 1.81 0.00989 2.74 0.00786 1.19 0.00786 1.19 0.0159 2.4-0.114 1.81-0.114 1.81-1.11 2.81-6.57 0.258-11.9-0.494-18-3 0.00222-1.02 0.00444-2.05 0.00673-3.1 0.0202-9.62 0.0352-19.2 0.0451-28.9 0.00523-4.95 0.0123-9.9 0.0236-14.8 0.0108-4.77 0.0168-9.54 0.0194-14.3 0.00185-1.82 0.00547-3.65 0.0109-5.47 0.00722-2.55 0.00826-5.1 0.0078-7.64 0.0036-0.76 0.00719-1.52 0.0109-2.3 0.064-3.85 0.064-3.85-1.12-7.45-0.0954-1.38-0.131-2.76-0.133-4.15-0.00209-0.835-0.00419-1.67-0.00635-2.53 0.00467-0.889 0.00935-1.78 0.0142-2.69 0.00338-0.901 0.00677-1.8 0.0103-2.73 0.146-18.9 0.146-18.9 3.11-21.9 4.81-0.945 9.81-0.925 14.7-1.23z" fill="#50A6DE"/>
<path transform="translate(881,150)" d="m0 0c1.46 4.52 0.27 7.52-1 12 0.266-0.71 0.531-1.42 0.805-2.15 0.353-0.919 0.706-1.84 1.07-2.79 0.348-0.917 0.696-1.83 1.05-2.78 1.07-2.29 1.07-2.29 3.07-3.29-3.43 31.2-22.5 63.3-41 88-0.422 0.563-0.843 1.13-1.28 1.71-4.55 6.03-4.55 6.03-6.72 8.29h-2c-0.227 0.536-0.454 1.07-0.688 1.62-1.77 3.2-3.85 5.67-6.31 8.38h-2c-0.24 0.574-0.48 1.15-0.727 1.74-4.79 8.51-15.5 14.6-23.3 20.3-0.822 0.619-1.64 1.24-2.49 1.88-6.75 4.96-14 8.55-21.5 12.1-1.07 0.523-2.13 1.05-3.23 1.59-1.46 0.7-1.46 0.7-2.95 1.41-0.86 0.413-1.72 0.825-2.61 1.25-2.21 0.75-2.21 0.75-5.21-0.25 2.64-1.65 5.28-3.3 8-5-3.35 0.949-6.69 1.9-10 3v-3c0.543-0.261 1.09-0.522 1.65-0.791 15.2-7.35 28.4-15.2 41.4-26.2 1.23-1.02 2.46-2.04 3.69-3.06 1.14-0.959 1.14-0.959 2.31-1.94-0.0598-2.36-0.0598-2.36-1-5-2.52-2.23-2.52-2.23-5.75-4.19-1.19-0.782-2.38-1.57-3.57-2.36-0.611-0.403-1.22-0.805-1.85-1.22-11.8-7.99-22.8-17.4-33.4-27-1.64-1.5-3.3-2.98-4.96-4.46-10.5-9.32-20.7-19-28.5-30.8v-3c6.44-2.14 12.9-2.83 19.6-3.56 1.1-0.126 2.2-0.251 3.33-0.381 11.2-1.26 22.4-2.23 33.7-2.18 0.878-0.00387 1.76-0.00773 2.66-0.0117 0.837 0.00129 1.67 0.00258 2.54 0.00391 1.12 0.00169 1.12 0.00169 2.26 0.00342 1.86 0.129 1.86 0.129 3.86 1.13 2.84 0.185 5.66 0.326 8.5 0.438 5.85 0.277 11.5 0.702 17.2 2.04 2.64 0.598 5.28 0.998 7.95 1.4 6.31 1.03 12.4 2.58 18.6 4.17 4.23 1.08 8.47 2.04 12.7 2.95 0.0877-0.63 0.175-1.26 0.266-1.91 1.04-4.37 2.77-8.38 4.48-12.5 2.98-7.3 5.75-14.6 8.24-22.1 1.01-2.46 1.01-2.46 3.01-3.46z" fill="#FAFDFF"/>
<path transform="translate(194 775)" d="m0 0c8.27-0.614 8.27-0.614 12.1 1.68 6.15 6.41 10.3 15 14.8 22.7 2.47 4.2 5.07 8.27 7.81 12.3 4.45 6.54 8.64 13.2 12.8 19.9 4.99 8.03 10 16 15.4 23.8 0.5 0.735 1 1.47 1.52 2.23 2.24 3.42 2.24 3.42 5.48 5.77 0.00809-1.06 0.0162-2.12 0.0245-3.21 0.0774-9.98 0.165-20 0.263-29.9 0.05-5.13 0.0963-10.3 0.134-15.4 0.0368-4.95 0.0831-9.89 0.136-14.8 0.0186-1.89 0.0337-3.78 0.0453-5.67 0.0168-2.64 0.0458-5.28 0.0778-7.92 0.00216-0.788 0.00432-1.58 0.00655-2.39 0.0842-5.41 0.0842-5.41 2.31-7.64 2.71-0.172 5.3-0.232 8-0.188 0.737 6.45e-4 1.47 0.00129 2.23 0.00195 5.48 0.045 5.48 0.045 7.77 1.19 0.0234 14.2 0.041 28.3 0.0518 42.5 0.00521 6.58 0.0123 13.2 0.0236 19.7 0.0109 6.35 0.0169 12.7 0.0194 19.1 0.00184 2.42 0.00544 4.84 0.0109 7.26 0.0073 3.4 0.00826 6.8 0.0078 10.2 0.0036 0.993 0.00719 1.99 0.0109 3.01-0.00898 6.13-0.395 12.1-1.12 18.2-18.2 0.27-18.2 0.27-24-5-1.57-2.17-2.99-4.29-4.38-6.56-0.389-0.622-0.779-1.24-1.18-1.89-0.788-1.26-1.57-2.52-2.35-3.79-5.81-9.4-11.9-18.6-18.1-27.8-1.73-2.58-3.46-5.17-5.19-7.75-0.421-0.63-0.843-1.26-1.28-1.91-2.36-3.54-4.66-7.11-6.91-10.7-3.66-5.83-7.68-11.4-11.7-17-0.505-0.704-1.01-1.41-1.53-2.13-0.458-0.632-0.916-1.26-1.39-1.91-0.99-1.61-0.99-1.61-0.99-3.61h-3c0.245 1.7 0.245 1.7 0.494 3.44 0.563 4.54 0.636 9 0.6 13.6-0.00359 0.889-0.00717 1.78-0.0109 2.7-0.0739 13-0.319 26-0.546 39-0.0616 3.54-0.121 7.08-0.181 10.6-0.117 6.89-0.235 13.8-0.355 20.7-2.6 0.0809-5.21 0.14-7.81 0.188-0.738 0.0251-1.48 0.0503-2.24 0.0762-5.47 0.0743-5.47 0.0743-7.66-1.47-1.71-2.38-1.72-3.92-1.8-6.85-0.0346-1.06-0.0692-2.13-0.105-3.23-0.0217-1.18-0.0435-2.37-0.0659-3.59-0.0328-1.26-0.0656-2.52-0.0994-3.83-0.424-17.5-0.412-35-0.41-52.6 1.04e-4 -5.02-0.0138-10-0.0308-15.1-0.0111-3.9-0.0131-7.79-0.0126-11.7-0.00118-1.85-0.0056-3.71-0.0133-5.56-0.00973-2.56-0.00696-5.12-8.95e-4 -7.68-0.00843-1.14-0.00843-1.14-0.017-2.31 0.0316-5.22 0.0316-5.22 2.26-7.45 3.35-0.744 6.67-0.96 10.1-1.38z" fill="#50A7DE"/>
<path transform="translate(956 775)" d="m0 0c5.82-0.211 5.82-0.211 7.85 1.34 1.85 2.31 3.33 4.72 4.84 7.26 3.45 5.72 7.04 11.3 10.7 16.9 0.546 0.838 1.09 1.68 1.65 2.54 3.05 4.68 6.11 9.35 9.17 14 1.31 2 2.61 4 3.92 6 0.638 0.976 1.28 1.95 1.93 2.96 3.95 6.06 7.79 12.2 11.5 18.4 2.31 3.68 4.81 7.21 7.37 10.7 1.35 2.02 1.35 2.02 2.35 5.02 1.65 0.99 3.3 1.98 5 3v-85c4.14-2.07 6.63-2.4 11.2-2.69 1.25-0.0864 2.5-0.173 3.79-0.262 0.996-0.0168 1.99-0.0335 3.02-0.0508 1.62 1.62 1.13 3.39 1.13 5.63 0.00423 1.5 0.00423 1.5 0.00854 3.03-0.00304 1.66-0.00304 1.66-0.00613 3.36 0.00263 1.74 0.00263 1.74 0.00531 3.51 0.00442 3.85 0.00148 7.71-0.00189 11.6 6.73e-4 2.66 0.00164 5.33 0.0029 7.99 0.00182 5.59-5.84e-4 11.2-0.00534 16.8-0.00544 6.47-0.00368 12.9 0.00183 19.4 0.00453 5.55 0.00518 11.1 0.00256 16.6-0.00156 3.32-0.00137 6.64 0.00154 9.95 0.00252 3.7-0.00131 7.39-0.0069 11.1 0.00202 1.11 0.00405 2.22 0.00613 3.36-0.00282 1-0.00564 2-0.00854 3.03-5.66e-4 1.31-5.66e-4 1.31-0.00114 2.65-0.126 1.98-0.126 1.98-1.13 2.98-3.05 0.334-6.12 0.325-9.19 0.375-1.28 0.0561-1.28 0.0561-2.58 0.113-4.18 0.0582-7.25-0.0107-10.6-2.65-2.54-2.76-4.33-5.29-6.11-8.59-2.58-4.67-5.34-9.07-8.43-13.4-1.07-1.84-1.07-1.84-1.07-4.84h-2c-1.63-2.39-3.14-4.77-4.62-7.25-0.904-1.48-1.81-2.95-2.71-4.43-0.45-0.734-0.899-1.47-1.36-2.23-4.05-6.54-8.42-12.9-12.9-19.2-4.36-6.19-8.37-12.6-12.4-19-0.623-0.996-1.25-1.99-1.89-3.02-0.563-0.91-1.13-1.82-1.71-2.76-1.31-2.23-1.31-2.23-3.48-3.12 0.0719 0.552 0.144 1.1 0.218 1.67 0.647 5.3 0.899 10.5 0.804 15.8-0.00961 0.791-0.0192 1.58-0.0291 2.4-0.0326 2.58-0.0731 5.16-0.114 7.74-0.0243 1.8-0.0482 3.61-0.0715 5.41-0.0625 4.72-0.132 9.44-0.202 14.2-0.071 4.83-0.136 9.65-0.201 14.5-0.129 9.45-0.264 18.9-0.404 28.4-2.58 0.249-5.16 0.475-7.75 0.688-0.73 0.0728-1.46 0.146-2.21 0.221-3.14 0.243-5.44 0.419-8.25-1.12-1.79-1.79-1.79-1.79-2.29-3.97 0.00109-0.85 0.00218-1.7 0.0033-2.58-0.0126-1.47-0.0126-1.47-0.0254-2.96 0.0112-1.07 0.0225-2.14 0.0341-3.24-0.0038-1.13-0.00759-2.26-0.0115-3.42-0.00743-3.74 0.014-7.48 0.0364-11.2 0.00238-2.59 0.00329-5.18 0.00278-7.78 0.00313-5.43 0.0192-10.9 0.0465-16.3 0.0315-6.29 0.042-12.6 0.0405-18.9-0.00122-6.04 0.0092-12.1 0.0256-18.1 0.00638-2.57 0.0103-5.15 0.0118-7.72 0.00432-3.59 0.0218-7.18 0.0432-10.8-9.06e-4 -1.07-0.00181-2.15-0.00275-3.25 0.00853-0.974 0.0171-1.95 0.0258-2.95 0.00335-0.85 0.0067-1.7 0.0102-2.57 0.257-2.05 0.257-2.05 2.26-4.05 4.85-0.802 9.79-0.865 14.7-1.16z" fill="#003687"/>
<path transform="translate(612 775)" d="m0 0c2.76 0.32 2.76 0.32 4.85 2.3 0.61 0.913 1.22 1.83 1.85 2.77 0.607 0.882 1.21 1.76 1.84 2.67 1.9 2.98 3.64 6.03 5.4 9.09 3.71 6.39 7.71 12.5 11.8 18.7 2.1 3.17 4.19 6.35 6.28 9.53 0.412 0.625 0.823 1.25 1.25 1.9 3.49 5.31 6.89 10.7 10.3 16 3.47 5.55 7 11 10.8 16.3 4.4 6.3 4.4 6.3 4.4 9.01h3c0.33-28 0.66-56.1 1-85 4.34-2.17 6.48-2.21 11.2-2.12 1.26 0.018 2.53 0.0361 3.83 0.0547 0.964 0.0232 1.93 0.0464 2.92 0.0703v2c0.99 0.495 0.99 0.495 2 1 0.0234 13.9 0.041 27.9 0.0518 41.8 0.00521 6.47 0.0123 12.9 0.0236 19.4 0.0109 6.24 0.0168 12.5 0.0194 18.7 0.00184 2.38 0.00544 4.76 0.0109 7.14 0.00729 3.34 0.00826 6.68 0.0078 10 0.0036 0.978 0.00719 1.96 0.0109 2.96-0.00856 5.74-0.389 11.3-1.12 17-3.23 0.14-6.46 0.234-9.69 0.312-0.912 0.0419-1.82 0.0838-2.76 0.127-6.78 0.123-6.78 0.123-10.4-2.5-2.5-3.39-4.94-6.78-7.23-10.3-0.421-0.634-0.842-1.27-1.28-1.92-7.66-11.6-7.66-11.6-7.66-14.7h-2c-1.26-1.69-1.26-1.69-2.69-4.07-0.529-0.871-1.06-1.74-1.6-2.64-0.564-0.943-1.13-1.89-1.71-2.86-1.18-1.94-2.36-3.87-3.54-5.81-0.586-0.959-1.17-1.92-1.77-2.91-2.27-3.67-4.64-7.27-7.06-10.8-2.83-4.19-5.62-8.4-8.31-12.7-2.32-3.66-4.68-7.29-7.12-10.9-0.845-1.24-0.845-1.24-1.71-2.51-0.489-0.594-0.977-1.19-1.48-1.8h-2c-1.57 3.14-1.18 6.49-1.21 9.94-0.0148 1.23-0.0148 1.23-0.03 2.48-0.0317 2.72-0.0564 5.43-0.0811 8.15-0.0206 1.88-0.0416 3.76-0.063 5.64-0.0553 4.95-0.105 9.91-0.153 14.9-0.0502 5.05-0.106 10.1-0.161 15.2-0.108 9.92-0.209 19.8-0.307 29.8-2.06 0.223-4.12 0.428-6.19 0.625-1.15 0.116-2.3 0.232-3.48 0.352-3.38 0.0238-5.34-0.457-8.33-1.98-1.85-1.85-1.17-4.87-1.21-7.35-0.00989-0.667-0.0198-1.33-0.03-2.02-0.0318-2.23-0.0565-4.46-0.0811-6.7-0.0208-1.57-0.0419-3.14-0.0634-4.71-0.0561-4.21-0.106-8.41-0.153-12.6-0.0295-2.59-0.0605-5.19-0.0918-7.78-0.131-10.9-0.248-21.8-0.354-32.6-0.0199-2.04-0.0404-4.09-0.061-6.13-0.0611-6.19-0.112-12.4-0.137-18.6-0.00748-1.7-0.0181-3.4-0.032-5.1-0.0174-2.29-0.022-4.58-0.0222-6.87-0.00411-1.23-0.00822-2.46-0.0125-3.73 0.243-2.8 0.243-2.8 2.24-4.8 3.27-0.414 3.27-0.414 7.25-0.625 1.3-0.0748 2.61-0.15 3.95-0.227 2.35-0.0918 4.7-0.237 7.04-0.469z" fill="#52A9DF"/>
<path transform="translate(847,469)" d="m0 0c2.51 2.51 2.63 3.46 3 7-0.247 2.61-0.564 5.2-0.941 7.79-0.0193 0.728-0.0387 1.46-0.0586 2.21 0.66 0.66 1.32 1.32 2 2l2-1c2.14 3.43 2.08 5.67 1.56 9.62-0.645 3.83-0.645 3.83 0.438 7.38 0.203 1.43 0.364 2.87 0.5 4.31 0.246 2.46 0.52 4.77 1.06 7.19 0.75 4.28 1.42 9.54-0.562 13.5-0.23 2.37-0.411 4.75-0.562 7.12-0.0838 1.28-0.168 2.56-0.254 3.88-0.0606 0.987-0.121 1.97-0.184 2.99 0.66 0.33 1.32 0.66 2 1-0.33 0.99-0.66 1.98-1 3-0.231 4.53-0.228 9.07-0.24 13.6-0.00958 2.22-0.0406 4.44-0.0723 6.66-0.0581 8 0.491 15.2 2.63 23 1.58 6.48 1.27 12.6-1.32 18.8h-3c0.33 0.928 0.66 1.86 1 2.81 1 3.19 1 3.19 1 6.19 1.65 0.33 3.3 0.66 5 1v2h2c0.99 2.48 0.99 2.48 2 5h2c0.33-0.99 0.66-1.98 1-3 0.495 0.99 0.495 0.99 1 2 0.99 0.33 1.98 0.66 3 1v-7h-2c-0.495-0.99-0.495-0.99-1-2l-2 4v-2h-2c0.33-3.63 0.66-7.26 1-11h6c0.33-0.99 0.66-1.98 1-3h14v-2h-2c0.33-0.99 0.66-1.98 1-3 1.44 0.115 2.88 0.242 4.31 0.375 0.801 0.0696 1.6 0.139 2.43 0.211 2.26 0.414 2.26 0.414 5.26 2.41 1.66 0.385 3.32 0.728 5 1-0.0412-1.26-0.0825-2.52-0.125-3.81-0.114-3.48 0.0657-4.1 2.12-7.19 0.66 0.33 1.32 0.66 2 1 10.3-7.06 20.2-14.4 29.5-22.7 2.64-2.34 5.34-4.61 8.02-6.9 1.7-1.54 1.7-1.54 3.45-4.4 0.66 0.33 1.32 0.66 2 1v1c1.91-0.122 1.91-0.122 4-1 1.04-1.64 2.05-3.31 3-5h2v2c1.65-0.33 3.3-0.66 5-1 0 2 0 2-1.5 3.62-0.495 0.454-0.99 0.908-1.5 1.38h6c0.33 1.65 0.66 3.3 1 5 1.3-0.124 2.6-0.247 3.94-0.375 0.731-0.0696 1.46-0.139 2.21-0.211 0.61-0.137 1.22-0.273 1.85-0.414 0.33-0.66 0.66-1.32 1-2 0.33 0.66 0.66 1.32 1 2h3v-3h2c0.33 1.32 0.66 2.64 1 4 2.97 0.495 2.97 0.495 6 1-0.476 4.29-1.66 6.27-5 9h-2v2c-0.722 0.247-1.44 0.495-2.19 0.75-4.24 1.88-7.06 3.98-9.44 8-0.454 0.743-0.908 1.49-1.38 2.25h-3c-0.33 0.66-0.66 1.32-1 2h-2c-1.74 1.97-3.38 3.94-5 6-0.743 0.908-1.49 1.82-2.25 2.75-1.77 2.12-1.77 2.12-2.75 4.25-2.63 1.58-3.87 2-7 2v2c-3.35 2.03-5.87 2.22-9.75 2.12-0.985-0.018-1.97-0.0361-2.98-0.0547-0.748-0.0232-1.5-0.0464-2.27-0.0703-0.33 0.99-0.66 1.98-1 3-0.66-0.33-1.32-0.66-2-1 0.33-0.99 0.66-1.98 1-3h-2v2h-3l-1-1v1h-11v-6h-4c0.186-0.578 0.371-1.15 0.562-1.75 0.478-2.46 0.195-3.89-0.562-6.25-1.32 0.33-2.64 0.66-4 1 0.66 0.33 1.32 0.66 2 1-0.278 1.18-0.278 1.18-0.562 2.38-0.697 2.6-0.697 2.6 0.562 4.62h-2c0.206 0.763 0.413 1.53 0.625 2.31 0.375 2.69 0.375 2.69-1.62 5.69v3l-1 1c-0.0723 1.85-0.0838 3.71-0.0625 5.56 0.00902 1.01 0.018 2.02 0.0273 3.07 0.0116 0.782 0.0232 1.56 0.0352 2.37h-3v4c0.66 0.33 1.32 0.66 2 1h-2v11c6.45 1.39 6.45 1.39 13 2h3c-1 3-1 3-4.21 4.87-1.38 0.681-2.77 1.35-4.16 2.01-0.734 0.354-1.47 0.707-2.22 1.07-1.47 0.706-2.94 1.41-4.42 2.11-1.6 0.763-3.18 1.56-4.75 2.37-9.18 4.57-21.9 9.58-32.2 9.58-11.5-36.1-17.8-74.3-21-112-0.0935-0.93-0.187-1.86-0.283-2.82-0.941-10.2-0.903-20.4-0.902-30.6-0.00218-3.14-0.0204-6.28-0.0393-9.42-0.0282-9.93 0.174-19.8 1.11-29.7 0.0777-0.851 0.155-1.7 0.236-2.58 0.214-2 0.535-3.98 0.878-5.96l2-1c0.407-2.32 0.744-4.66 1-7z" fill="#50A6DE"/>
<path transform="translate(1202 776)" d="m0 0c0.941 0.00322 1.88 0.00645 2.85 0.00977 0.985 0.00838 1.97 0.0168 2.98 0.0254 0.993 0.00451 1.99 0.00902 3.01 0.0137 2.46 0.0118 4.91 0.0291 7.37 0.0488 2.77 6.04 5.25 12.1 7.54 18.4 0.323 0.872 0.645 1.74 0.977 2.64 0.685 1.85 1.37 3.71 2.05 5.56 1.78 4.84 3.58 9.68 5.37 14.5 0.352 0.951 0.705 1.9 1.07 2.88 2.79 7.51 5.65 15 8.55 22.5 3.17 8.16 6.19 16.3 9.02 24.6 1.33 3.87 2.69 7.71 4.18 11.5 0.282 0.726 0.564 1.45 0.854 2.2 0.527 1.34 1.06 2.69 1.61 4.02 1.64 4.19 1.78 6.43 1.78 11.2h-20c-4.5-9.01-4.5-9.01-5.92-13.1-0.454-1.3-0.454-1.3-0.918-2.63-0.451-1.32-0.451-1.32-0.91-2.66-0.316-0.901-0.632-1.8-0.957-2.73-2.29-6.62-2.29-6.62-2.29-8.89-6.05-0.0494-12.1-0.0857-18.2-0.11-2.06-0.0101-4.12-0.0237-6.17-0.041-2.96-0.0243-5.92-0.0356-8.88-0.0444-0.92-0.0103-1.84-0.0206-2.79-0.0313-1.29-2.27e-4 -1.29-2.27e-4 -2.61-4.58e-4 -0.755-0.00444-1.51-0.00888-2.29-0.0135-2.46 0.28-4.03 0.915-6.11 2.24-1.36 2.64-1.36 2.64-2.32 5.81-0.389 1.16-0.777 2.32-1.18 3.51-0.391 1.21-0.782 2.43-1.19 3.68-0.795 2.4-1.59 4.79-2.39 7.19-0.346 1.07-0.693 2.13-1.05 3.23-0.876 2.58-0.876 2.58-1.88 4.58-6.6 1.37-13.4 1.22-20 0-1.39-2.79-0.403-4.41 0.535-7.25 0.257-0.743 0.513-1.49 0.778-2.25 0.272-0.801 0.544-1.6 0.825-2.43 2.64-7.65 5.56-15.2 8.49-22.7 4.2-10.8 8.27-21.7 12.3-32.6 0.343-0.922 0.686-1.84 1.04-2.79 3.51-9.44 7.01-18.9 10.4-28.4 0.512-1.42 1.02-2.83 1.54-4.25 0.937-2.59 1.86-5.19 2.79-7.78 0.407-1.13 0.815-2.26 1.23-3.42 0.349-0.978 0.697-1.96 1.06-2.96 1.69-3.76 4.01-3.31 7.77-3.28z" fill="#003687"/>
<path transform="translate(556 775)" d="m0 0c0.685 0.0483 1.37 0.0967 2.08 0.146 5.06 0.393 5.06 0.393 7.36 1.54 1.44 3.7 1.12 7.67 1.09 11.6-0.00318 0.758-0.00636 1.52-0.00964 2.3-0.0126 2.51-0.0335 5.02-0.056 7.52-0.00696 0.861-0.0139 1.72-0.0211 2.61-0.0374 4.57-0.0814 9.14-0.131 13.7-0.0491 4.68-0.0755 9.37-0.0964 14.1-0.0205 3.63-0.0585 7.26-0.101 10.9-0.0172 1.72-0.028 3.45-0.0319 5.17-0.0458 15.5-1.65 29.5-12.7 41.4-7.57 7.27-15.9 9.83-26 11.8-0.648 0.178-1.3 0.356-1.96 0.539-7.02 1.59-14.2 0.393-21-1.54-0.95-0.257-1.9-0.513-2.88-0.777-7.23-2.15-13.5-5.14-19.1-10.2v-2c-0.99-0.33-1.98-0.66-3-1-9.15-12.3-8.45-30.2-8.36-44.8 5.2e-4 -1.74-3.66e-6 -3.49-0.00151-5.23 8.88e-5 -3.62 0.0103-7.23 0.0286-10.8 0.0229-4.64 0.0232-9.28 0.0165-13.9-0.00333-3.58 0.00327-7.16 0.0131-10.7 0.00385-1.71 5e-3 -3.42 0.00341-5.14-3.69e-4 -2.38 0.0122-4.75 0.0285-7.13-0.00248-0.706-0.00495-1.41-0.00751-2.14 0.0534-4.86 0.0534-4.86 2.28-7.08 2.91-0.145 5.72-0.186 8.62-0.125 0.802 0.00902 1.6 0.018 2.43 0.0273 1.98 0.0236 3.96 0.0595 5.95 0.0977v2c0.66 0.33 1.32 0.66 2 1-0.00666 0.913-0.0133 1.83-0.0202 2.77-0.0604 8.65-0.106 17.3-0.135 25.9-0.0156 4.45-0.0367 8.89-0.0709 13.3-0.0329 4.3-0.0506 8.6-0.0583 12.9-0.0055 1.63-0.0162 3.26-0.0326 4.89-0.111 11.5 0.192 22.1 6.32 32.2v2c0.804 0.402 0.804 0.402 1.62 0.812 1.8 0.9 3.59 1.82 5.38 2.75 7.32 3.51 18 4.2 25.7 1.5 2-1.21 3.63-2.45 5.31-4.06 0.763-0.701 1.53-1.4 2.31-2.12 5.55-9.46 5.14-20.3 5.16-30.9 0.0143-1.63 0.0301-3.25 0.0472-4.88 0.0416-4.25 0.0667-8.5 0.0875-12.8 0.036-6.82 0.0971-13.6 0.158-20.5 0.0189-2.37 0.0308-4.74 0.0414-7.1 0.0102-1.46 0.0206-2.92 0.0311-4.38 0.00974-1.9 0.00974-1.9 0.0197-3.84 0.14-3.63 0.377-7.03 1.14-10.6 3.73-2.49 6.3-2.06 10.6-1.69z" fill="#52A9DF"/>
<path transform="translate(792 795)" d="m0 0c8.2 4.36 12.4 11.5 15.8 20 2.12 7.44 2.34 14.8 2.31 22.5l0.0488 3.22c0.00666 10.9-2.44 21.8-9.96 30-8.65 7.86-17.4 9.58-28.8 9.46-8.82-0.521-15-3.44-21.6-9.21-0.887-0.743-1.77-1.49-2.69-2.25-8.53-10.1-11.2-22.8-10.3-35.8 1.61-12.7 5.11-24.4 14.7-33.3 11.4-8.42 27.2-10.1 40.4-4.67z" fill="#FAFDFF"/>
<path transform="translate(1436 797)" d="m0 0c9.6 7.72 13.7 17.2 15.9 29.3 1.25 15.1 0.778 30.5-8.31 43.2-6.72 7.6-14.1 10.3-24 11.1-10.6 0.359-18.6-1.39-27-8.13-8.62-8.36-12.9-19.3-13.8-31.1-0.0812-0.964-0.162-1.93-0.246-2.92-0.564-12.9 3.66-25.2 11.9-35.1 12.1-12.9 30.1-14.6 45.4-6.29z" fill="#FAFDFF"/>
<path transform="translate(860 776)" d="m0 0c1.83 2.27e-4 1.83 2.27e-4 3.7 4.58e-4 1.98 0.0155 1.98 0.0155 4 0.0313 1.36 0.00373 2.73 0.00658 4.09 0.00858 3.59 0.00763 7.17 0.0273 10.8 0.0494 3.66 0.0205 7.32 0.0296 11 0.0397 7.18 0.0214 14.4 0.0556 21.5 0.0977 1.53 3.07 1.1 6.27 1.06 9.62-0.00451 0.706-0.00902 1.41-0.0137 2.14-0.0118 1.74-0.0297 3.49-0.0488 5.23-27.8 1.15-27.8 1.15-40.4 0.938-2.57-0.244-2.57-0.244-3.65 1.06-0.0878 2.22-0.107 4.44-0.0977 6.66 0.00212 0.997 0.00212 0.997 0.00429 2.01 0.00561 2.13 0.0182 4.26 0.0309 6.39 0.00501 1.44 0.00958 2.88 0.0137 4.32 0.011 3.54 0.0283 7.08 0.0488 10.6 1.76 0.0376 1.76 0.0376 3.56 0.0759 4.35 0.0939 8.7 0.194 13 0.296 1.88 0.0434 3.77 0.0851 5.65 0.125 2.7 0.0575 5.41 0.121 8.11 0.186 0.848 0.0167 1.7 0.0334 2.57 0.0506 5.95 0.152 5.95 0.152 7.06 1.27 0.237 2.86 0.422 5.7 0.562 8.56 0.0432 0.806 0.0864 1.61 0.131 2.44 0.106 2 0.207 4 0.307 5.99-1.21 0.0251-2.41 0.0501-3.66 0.0759-4.46 0.0939-8.92 0.194-13.4 0.296-1.93 0.0434-3.87 0.0851-5.8 0.125-2.77 0.0575-5.55 0.121-8.32 0.186-0.87 0.0167-1.74 0.0334-2.64 0.0506-3.92-0.284-3.92-0.284-7.21 1.27-0.1 2.28-0.131 4.56-0.133 6.84-9.57e-4 0.684-0.00191 1.37-0.0029 2.07-6.82e-4 1.45 0.00117 2.9 0.00534 4.35 0.00535 2.23 5.45e-5 4.45-0.00635 6.68 6.61e-4 1.4 0.00194 2.81 0.00391 4.21 0.00113 1.29 0.00226 2.57 0.00342 3.9-0.207 2.83-0.207 2.83 1.13 3.94 2.15 0.171 4.3 0.275 6.45 0.352 0.65 0.0232 1.3 0.0463 1.97 0.0702 1.38 0.0477 2.76 0.0929 4.14 0.136 2.1 0.0666 4.2 0.145 6.29 0.224 1.34 0.045 2.69 0.0893 4.03 0.133 1.22 0.0408 2.44 0.0815 3.69 0.124 3.26-0.0359 6.22-0.448 9.42-1.04 2.72 0.141 5.3 0.581 8 1 1.74 4.03 2.11 7.41 2.06 11.7-0.00902 0.988-0.018 1.98-0.0273 2.99-0.0116 0.751-0.0232 1.5-0.0352 2.28-7.17 0.144-14.3 0.286-21.5 0.427-2.43 0.048-4.87 0.0965-7.3 0.146-3.52 0.0707-7.04 0.14-10.6 0.208-1.07 0.0219-2.14 0.0437-3.24 0.0663-2.08 0.04-4.15 0.0741-6.23 0.102-2.25 0.0358-4.5 0.0947-6.74 0.169-1.16 0.0272-2.33 0.0543-3.53 0.0823-1.59 0.0492-1.59 0.0492-3.21 0.0995-2.69-0.301-2.69-0.301-4.34-1.52-1.76-2.31-1.73-3.64-1.74-6.53-0.00846-0.977-0.0169-1.95-0.0256-2.96 0.00607-1.07 0.0121-2.14 0.0184-3.24-0.00526-1.13-0.0105-2.26-0.0159-3.42-0.0132-3.74-0.00445-7.48 0.00568-11.2-0.00202-2.59-0.00493-5.18-0.0087-7.78-0.00443-5.43 0.00174-10.9 0.016-16.3 0.0163-6.29 0.011-12.6-0.00548-18.9-0.0152-6.04-0.0136-12.1-0.00485-18.1 0.00201-2.57-4.74e-4 -5.15-0.00744-7.72-0.00758-3.59 0.00395-7.18 0.0207-10.8-0.00607-1.07-0.0121-2.15-0.0184-3.25 0.00846-0.974 0.0169-1.95 0.0256-2.95 0.00113-0.85 0.00226-1.7 0.00343-2.57 0.125-0.676 0.249-1.35 0.378-2.05 3.49-2.32 4.83-2.24 8.94-2.23z" fill="#003687"/>
<path transform="translate(1116 773)" d="m0 0c1.22 0.0728 1.22 0.0728 2.46 0.147 12.8 0.844 12.8 0.844 17 2.54 1.98 2.96 2.26 3.68 2.41 7.01 0.0387 0.757 0.0773 1.51 0.117 2.29 0.0309 0.786 0.0619 1.57 0.0938 2.38 0.0387 0.797 0.0773 1.59 0.117 2.42 0.0941 1.97 0.177 3.93 0.258 5.9-4-0.498-7.56-1.1-11.3-2.56-9.85-3.01-21.2-3.17-30.6 1.25-4.01 2.18-6.1 4.16-8.06 8.31-0.538 2.22-0.538 2.22-0.5 4.44-0.0464 1.08-0.0464 1.08-0.0938 2.18 1.11 4.44 3.9 7.27 7.62 9.71 2.35 1.32 4.74 2.53 7.16 3.73 0.851 0.436 1.7 0.871 2.58 1.32 4.23 2.16 8.5 4.22 12.8 6.24 8.52 4.24 15.3 10.4 20.4 18.4 0.412 0.556 0.825 1.11 1.25 1.68 4.29 6.69 3.79 15.7 2.75 23.3-2.28 7.94-7.53 14-14.3 18.6-14.7 7.82-35.3 7.73-51.1 3.37-9.92-3.47-9.92-3.47-11.6-6.93-0.0717-2.55-0.0931-5.07-0.0625-7.62 0.00451-0.706 0.00902-1.41 0.0137-2.14 0.0118-1.74 0.0297-3.49 0.0488-5.23 1.64-1.17 1.64-1.17 4-2 2.7 1.05 2.7 1.05 5.69 2.75 8 4.54 15.8 5.62 24.9 5.69 1.2 0.0493 1.2 0.0493 2.42 0.0996 6.16 0.0552 10.3-1.62 15-5.54 2.44-3.15 3.81-6 4-10-2.6-7.65-6.23-11.9-13.2-15.8-0.606-0.339-1.21-0.678-1.84-1.03-3.95-2.18-7.98-4.17-12.1-6.11-11.8-5.69-22.4-12.6-27.9-25-2.28-9.02-0.788-17.1 3.62-25.2 6.21-9.66 17.4-15.1 28.4-17.8 2.33-0.0389 4.67-0.0449 7 0 3.3-1.65 6.9-0.905 10.5-0.688z" fill="#003687"/>
<path transform="translate(528,504)" d="m0 0c0.392 0.474 0.784 0.949 1.19 1.44 2.22 1.91 3.95 2.18 6.81 2.56v3c0.598 0.0412 1.2 0.0825 1.81 0.125 3.32 1.33 3.78 3.68 5.19 6.88 0.495 0.804 0.99 1.61 1.5 2.44 1.5 2.56 1.5 2.56 2.83 5.73 2 4.73 4.49 9.17 6.97 13.7 2.7 4.96 2.7 4.96 2.7 7.17 1.49 0.495 1.49 0.495 3 1 1.96 2.98 2 4.26 2 8h2v4h4v4c1.32 0.33 2.64 0.66 4 1v2c2.31 0.33 4.62 0.66 7 1v4h2c0.33 1.32 0.66 2.64 1 4 0.742-0.0412 1.49-0.0825 2.25-0.125 2.84 0.129 4.34 0.696 6.75 2.12v2h2v2c0.722 0.103 1.44 0.206 2.19 0.312 3.11 0.761 5.22 1.82 7.81 3.69 0.33 0.99 0.66 1.98 1 3 1.49 0.495 1.49 0.495 3 1v2h2v2h6v3h2.38c4.78 0 7.55 0.282 11.6 3l-4 2h2v2h2v2h2v2c0.926 0.0735 0.926 0.0735 1.87 0.148 5.86 0.518 11.4 1.47 17.1 2.85v2c4.05 0.982 7.84 1.08 12 1-0.639-0.103-1.28-0.206-1.94-0.312-0.681-0.227-1.36-0.454-2.06-0.688-0.33-0.99-0.66-1.98-1-3 3.73-1.24 5.74-0.653 9.56 0.188 1.16 0.241 2.31 0.482 3.5 0.73 2.93 1.08 2.93 1.08 4.34 3.2 0.197 0.623 0.394 1.25 0.598 1.89 0.371-1.18 0.371-1.18 0.75-2.38 1.4-2.95 2.26-3.53 5.25-4.62 0.891 2.67 1.48 5.24 2 8 1.32-0.33 2.64-0.66 4-1-1.71 2.78-2.48 3.85-5.69 4.75-0.763 0.0825-1.53 0.165-2.31 0.25h9c-0.422 5.21-2.4 9.27-4.6 13.9-1.94 4.27-3.56 8.64-5.19 13-1.24 3.11-2.67 6.07-4.21 9.04-19.6-0.889-41.2-20.4-56-32-0.904-0.703-1.81-1.41-2.74-2.13-1.46-1.14-2.92-2.28-4.38-3.42-2.34-1.79-4.74-3.47-7.18-5.11-1.87-1.47-3.52-3.1-5.19-4.8-1.78-1.81-3.59-3.58-5.4-5.35-7.13-7.02-14.1-14-20.3-21.9-1.66-2.11-3.39-4.09-5.2-6.07-8.19-9.28-15.2-19.7-21.6-30.2-1.03-1.6-1.03-1.6-2.07-3.24-4.76-7.53-8.79-15.3-12.6-23.4-0.45-0.949-0.901-1.9-1.36-2.87-0.408-0.9-0.816-1.8-1.24-2.73-0.367-0.8-0.734-1.6-1.11-2.42-0.788-2.8-0.431-4.58 0.338-7.35z" fill="#50A6DE"/>
<path transform="translate(1266 775)" d="m0 0c1.12-0.0142 2.23-0.0284 3.38-0.043 3.89 0.257 6.88 0.71 10.5 2.23 1.64 2.24 2.61 3.94 3.69 6.44 0.315 0.677 0.631 1.35 0.956 2.05 1.15 2.49 2.25 5 3.36 7.51 1.02 2.29 2.05 4.57 3.07 6.86 2.56 5.74 5.1 11.5 7.61 17.2 0.932 2.06 1.93 4.09 2.98 6.09 1.34 2.82 1.34 2.82 1.34 5.82 1.65 0.33 3.3 0.66 5 1 0.136-1.01 0.136-1.01 0.275-2.04 0.918-3.75 2.57-6.99 4.33-10.4 0.362-0.714 0.723-1.43 1.1-2.16 1.16-2.28 2.32-4.56 3.49-6.84 1.52-2.98 3.03-5.95 4.54-8.93 0.551-1.09 0.551-1.09 1.11-2.2 2.94-5.85 5.51-11.8 7.96-17.9 1.2-2.54 1.2-2.54 3.2-3.54 6.35-0.465 12.7 0.264 19 1-0.554 4.55-1.75 7.93-3.89 12-0.903 1.73-0.903 1.73-1.82 3.49-0.659 1.24-1.32 2.48-1.98 3.72-0.677 1.29-1.35 2.58-2.03 3.87-1.4 2.66-2.79 5.32-4.2 7.98-3.23 6.12-6.41 12.3-9.59 18.4-0.55 1.06-1.1 2.11-1.67 3.2-1.07 2.06-2.14 4.13-3.19 6.21-1.14 2.18-2.33 4.32-3.58 6.44-5.38 9.57-6.07 17.3-5.94 28-0.00678 2.23-0.0232 4.47-0.0401 6.7-0.00959 1.42-0.015 2.84-0.016 4.26-0.0134 4.99-0.367 9.79-1.07 14.7-2.96 0.0269-5.92 0.0468-8.88 0.0625-0.842 0.00838-1.68 0.0168-2.55 0.0254-0.806 0.00322-1.61 0.00645-2.44 0.00977-1.12 0.00786-1.12 0.00786-2.25 0.0159-1.88-0.114-1.88-0.114-3.88-1.11-0.0293-3.69-0.0469-7.37-0.0625-11.1-0.00838-1.04-0.0168-2.08-0.0254-3.15-0.0136-4.28 0.02-8.33 0.65-12.6 1.61-11.9-3.82-22.8-9.31-32.9-2.45-4.59-4.75-9.25-7.07-13.9-0.505-1.01-1.01-2.02-1.53-3.06-5-10-9.82-20.1-14.6-30.2-0.69-1.44-1.41-2.87-2.17-4.27-1.23-2.69-1.07-4.99-0.875-7.91 1.83-1.83 4.67-1.17 7.12-1.19z" fill="#003687"/>
<path transform="translate(271 776)" d="m0 0c1.46 0.00399 2.92 0.0188 4.38 0.043 0.737 6.45e-4 1.47 0.00129 2.23 0.00195 5.48 0.045 5.48 0.045 7.77 1.19 0.0234 14.2 0.041 28.3 0.0518 42.5 0.00521 6.58 0.0123 13.2 0.0236 19.7 0.0109 6.35 0.0169 12.7 0.0194 19.1 0.00184 2.42 0.00544 4.84 0.0109 7.26 0.0073 3.4 0.00826 6.8 0.0078 10.2 0.0036 0.993 0.00719 1.99 0.0109 3.01-0.00898 6.13-0.395 12.1-1.12 18.2-18.3 0.27-18.3 0.27-24-5-1.6-2.25-3.07-4.46-4.5-6.81-2.37-3.87-4.66-7.48-7.69-10.9-2.72-4.98-1.31-9.03 0.188-14.3 4.46-0.495 4.46-0.495 9-1v-2h2c1.02 1.66 2.02 3.32 3 5 0.66 0.33 1.32 0.66 2 1 0.00809-1.06 0.0162-2.12 0.0245-3.21 0.0774-9.98 0.165-20 0.263-29.9 0.05-5.13 0.0963-10.3 0.134-15.4 0.0368-4.95 0.0831-9.89 0.136-14.8 0.0186-1.89 0.0337-3.78 0.0453-5.67 0.0168-2.64 0.0458-5.28 0.0778-7.92 0.00216-0.788 0.00432-1.58 0.00655-2.39 0.117-7.5 0.117-7.5 5.94-7.87z" fill="#52A9DF"/>
<path transform="translate(612 775)" d="m0 0c2.76 0.32 2.76 0.32 4.85 2.3 0.61 0.913 1.22 1.83 1.85 2.77 0.67 0.996 1.34 1.99 2.03 3.02 9.54 15.2 9.54 15.2 10 19.2-1.44 2.25-1.44 2.25-3 4-0.186-0.959-0.186-0.959-0.375-1.94-0.206-0.681-0.413-1.36-0.625-2.06-0.66-0.33-1.32-0.66-2-1 0.247 1.39 0.247 1.39 0.5 2.81 0.5 3.19 0.5 3.19 0.5 6.19-0.99 0.495-0.99 0.495-2 1v2h2c-0.33 0.99-0.66 1.98-1 3-6.75-2.62-6.75-2.62-9-6h-2c-1.57 3.14-1.18 6.49-1.21 9.94-0.0148 1.23-0.0148 1.23-0.03 2.48-0.0317 2.72-0.0564 5.43-0.0811 8.15-0.0206 1.88-0.0416 3.76-0.063 5.64-0.0553 4.95-0.105 9.91-0.153 14.9-0.0502 5.05-0.106 10.1-0.161 15.2-0.108 9.92-0.209 19.8-0.307 29.8-2.06 0.223-4.12 0.428-6.19 0.625-1.15 0.116-2.3 0.232-3.48 0.352-3.38 0.0238-5.34-0.457-8.33-1.98-1.85-1.85-1.17-4.87-1.21-7.35-0.00989-0.667-0.0198-1.33-0.03-2.02-0.0318-2.23-0.0565-4.46-0.0811-6.7-0.0208-1.57-0.0419-3.14-0.0634-4.71-0.0561-4.21-0.106-8.41-0.153-12.6-0.0295-2.59-0.0605-5.19-0.0918-7.78-0.131-10.9-0.248-21.8-0.354-32.6-0.0199-2.04-0.0404-4.09-0.061-6.13-0.0611-6.19-0.112-12.4-0.137-18.6-0.00748-1.7-0.0181-3.4-0.032-5.1-0.0174-2.29-0.022-4.58-0.0222-6.87-0.00411-1.23-0.00822-2.46-0.0125-3.73 0.243-2.8 0.243-2.8 2.24-4.8 3.27-0.414 3.27-0.414 7.25-0.625 1.3-0.0748 2.61-0.15 3.95-0.227 2.35-0.0918 4.7-0.237 7.04-0.469z" fill="#52A9DF"/>
<path transform="translate(139 776)" d="m0 0c1.55 0.00399 3.1 0.0188 4.66 0.043 1.18 9.67e-4 1.18 9.67e-4 2.38 0.00195 5.84 0.0451 5.84 0.0451 8.12 1.19 0.0234 14.5 0.0409 29 0.0518 43.4 0.00515 6.72 0.0122 13.4 0.0236 20.2 0.0109 6.49 0.0168 13 0.0194 19.5 0.00185 2.48 0.00545 4.95 0.0109 7.43 0.00726 3.47 0.00826 6.94 0.0078 10.4 0.0036 1.02 0.00719 2.04 0.0109 3.1-0.00737 5.1-0.241 9.95-1.12 15-2.77 0.249-5.54 0.475-8.31 0.688-0.786 0.0728-1.57 0.146-2.38 0.221-0.757 0.0548-1.51 0.11-2.29 0.166-0.696 0.0576-1.39 0.115-2.11 0.175-2.57-0.337-3.29-1.26-4.9-3.25-0.388-1.87-0.388-1.87-0.405-4-0.014-0.813-0.028-1.63-0.0424-2.46-1.36e-4 -0.888-2.72e-4 -1.78-4.12e-4 -2.69-0.0118-0.939-0.0236-1.88-0.0358-2.84-0.0354-3.12-0.0494-6.23-0.0629-9.35-0.0194-2.17-0.0399-4.35-0.0616-6.52-0.0424-4.57-0.075-9.14-0.1-13.7-0.032-5.82-0.0816-11.6-0.138-17.4-0.0427-4.5-0.079-9-0.113-13.5-0.0164-2.14-0.0339-4.28-0.0527-6.42-0.0822-9.96-0.116-19.9 0.386-29.9 0.0309-0.705 0.0618-1.41 0.0936-2.14 0.322-5.3 0.696-6.93 6.38-7.27z" fill="#50A6DE"/>
<path transform="translate(319 776)" d="m0 0c0.98 0.00516 1.96 0.0103 2.97 0.0156 0.98-0.00516 1.96-0.0103 2.97-0.0156 2.53 0.266 2.53 0.266 4.53 2.27 2.19 5.42 2.19 5.42 1 9h-2v3h2c0.33 2.31 0.66 4.62 1 7h5v10c-0.66 0.33-1.32 0.66-2 1-0.181 5.1-0.346 10.2-0.5 15.3-0.024 0.794-0.048 1.59-0.0728 2.41-0.524 18-0.489 35.9-0.39 53.9 0.00634 1.62 0.00634 1.62 0.0128 3.27 0.00823 2.05 0.0207 4.09 0.0378 6.14 0.00326 0.903 0.00653 1.81 0.00989 2.74 0.00786 1.19 0.00786 1.19 0.0159 2.4-0.114 1.81-0.114 1.81-1.11 2.81-6.57 0.258-11.9-0.494-18-3 0.00222-1.02 0.00444-2.05 0.00673-3.1 0.0202-9.62 0.0352-19.2 0.0451-28.9 0.00523-4.95 0.0123-9.9 0.0236-14.8 0.0108-4.77 0.0168-9.54 0.0194-14.3 0.00185-1.82 0.00547-3.65 0.0109-5.47 0.00722-2.55 0.00826-5.1 0.0078-7.64 0.0036-0.76 0.00719-1.52 0.0109-2.3 0.064-3.85 0.064-3.85-1.12-7.45-0.0954-1.38-0.131-2.76-0.133-4.15-0.00209-0.835-0.00419-1.67-0.00635-2.53 0.00467-0.889 0.00935-1.78 0.0142-2.69 0.00338-0.901 0.00677-1.8 0.0103-2.73 0.166-21.6 0.166-21.6 5.65-22.2z" fill="#52A9DF"/>
<path transform="translate(1202 776)" d="m0 0c0.941 0.00322 1.88 0.00645 2.85 0.00977 0.985 0.00838 1.97 0.0168 2.98 0.0254 0.993 0.00451 1.99 0.00902 3.01 0.0137 2.46 0.0118 4.91 0.0283 7.37 0.0488 4.33 9.5 4.33 9.5 5.81 14.4 0.254 0.824 0.508 1.65 0.77 2.5 0.418 2.07 0.418 2.07-0.582 4.07h-2c0.361 0.75 0.722 1.5 1.09 2.27 3.1 6.84 4.65 12.2 3.91 19.7h-4v3l-2-1c0.495-0.99 0.495-0.99 1-2h-4v3c-1.84-0.0469-1.84-0.0469-4-1-1.09-2.46-1.89-4.69-2.62-7.25-1.88-6.49-1.88-6.49-4.38-12.8-0.66-0.33-1.32-0.66-2-1-0.125 0.805-0.125 0.805-0.253 1.63-1.35 7.65-3.71 14.9-6.27 22.2-0.734 2.12-1.44 4.24-2.14 6.37-0.471 1.36-0.943 2.72-1.42 4.07-0.417 1.22-0.833 2.44-1.26 3.7-2.03 3.7-3.86 4.4-7.66 6.03-1.14 2.46-1.14 2.46-1.38 5.19-0.131 0.901-0.263 1.8-0.398 2.73-0.0748 0.687-0.15 1.37-0.227 2.08h-2v-9h-2c0.0206 1.07 0.0412 2.14 0.0625 3.25-0.0501 3-0.273 4.94-1.06 7.75-0.35 2.33-0.686 4.66-1 7-1.48 0.495-1.48 0.495-3 1l-2 2c-2.81-1-4.25-2.26-6.35-4.42-1.83-3.98-1.76-4.51-0.533-8.47 0.727-1.94 1.48-3.88 2.26-5.8 0.398-1.04 0.796-2.09 1.21-3.16 1.3-3.39 2.64-6.77 3.98-10.1 0.895-2.31 1.79-4.63 2.68-6.94 1.76-4.58 3.54-9.16 5.32-13.7 2.1-5.42 4.13-10.9 6.1-16.3 0.258-0.718 0.516-1.44 0.782-2.17 1.15-3.21 2.3-6.43 3.44-9.65 0.393-1.09 0.786-2.18 1.19-3.3 0.329-0.927 0.659-1.85 0.998-2.81 1.66-3.65 4.08-3.18 7.72-3.16z" fill="#003280"/>
<path transform="translate(540,278)" d="m0 0h4c-0.205 0.736-0.41 1.47-0.621 2.23-0.269 0.976-0.539 1.95-0.816 2.96-0.267 0.963-0.534 1.93-0.809 2.92-1.2 4.59-1.99 9.22-2.75 13.9-0.615 0.0464-1.23 0.0928-1.86 0.141-2.41 0.69-2.41 0.69-3.37 3.41-0.316 1.06-0.632 2.11-0.957 3.2-0.324 1.05-0.647 2.09-0.98 3.17-0.866 3.02-0.866 3.02-1.32 5.91-0.169 0.717-0.338 1.43-0.512 2.17-0.99 0.495-0.99 0.495-2 1 0.0116 1.18 0.0232 2.36 0.0352 3.58 0.00938 1.56 0.0185 3.11 0.0273 4.67 0.00838 0.777 0.0168 1.55 0.0254 2.36 0.00483 1.13 0.00483 1.13 0.00977 2.29 0.00786 1.04 0.00786 1.04 0.0159 2.09-0.119 2.11-0.537 3.98-1.11 6.01h-3c-0.33 0.99-0.66 1.98-1 3-0.33-0.33-0.66-0.66-1-1-0.33 2.64-0.66 5.28-1 8h-2c0.186 0.742 0.371 1.49 0.562 2.25 0.438 2.75 0.438 2.75-0.562 6.75h10c-0.99 0.495-0.99 0.495-2 1 0.66 1.65 1.32 3.3 2 5h-2c0.33 0.99 0.66 1.98 1 3 3.47 0.495 3.47 0.495 7 1v2h3v7h5v6c-1.49 0.495-1.49 0.495-3 1v2h2c0.33 0.99 0.66 1.98 1 3 1.98-0.495 1.98-0.495 4-1v4c-2.89 0.826-4.89 1-8 1-0.66 0.99-1.32 1.98-2 3-1.32-0.33-2.64-0.66-4-1v4h-2v2h-4v4c0.99 0.33 1.98 0.66 3 1h-3v2c-0.99 0.33-1.98 0.66-3 1-1.05 2.31-2.05 4.65-3 7-0.99 0.99-0.99 0.99-2 2-0.719 2.32-1.39 4.65-2 7-1.32 0.33-2.64 0.66-4 1v4c0.66 0.33 1.32 0.66 2 1h-2c0.33 3.3 0.66 6.6 1 10-0.66 0.33-1.32 0.66-2 1-2.95-10.2-2.19-21.8-2.19-32.2-6.45e-4 -1.26-0.00129-2.53-0.00195-3.83 0.0437-7.76 0.434-15.3 1.49-23 0.568-4.2 0.681-8.1 0.453-12.3-0.458-30.4 14.9-66.7 28.2-93.6z" fill="#50A6DE"/>
<path transform="translate(856,152)" d="m0 0h2c0.495 0.99 0.495 0.99 1 2 0.722-0.103 1.44-0.206 2.19-0.312 3.95 0.439 5.3 2.37 7.81 5.31v1c2.97 0.495 2.97 0.495 6 1v-7c0.66-0.33 1.32-0.66 2-1 1.18 3.41 0.835 5.24-0.477 8.56-0.509 1.31-0.509 1.31-1.03 2.65-0.37 0.92-0.74 1.84-1.12 2.79-0.367 0.937-0.735 1.87-1.11 2.84-2.66 6.76-5.39 13.5-8.26 20.2-5.79-0.413-11.2-1.48-16.8-2.94-5.78-1.5-11.5-2.73-17.4-3.63-2.68-0.418-5.31-0.95-7.96-1.5-5.69-1.07-11.4-1.35-17.2-1.6-5.47-0.245-5.47-0.245-7.66-1.34v-2c-1.32-0.33-2.64-0.66-4-1 6.75-0.125 6.75-0.125 9 1-0.33-0.66-0.66-1.32-1-2-0.04-2-0.0435-4 0-6 1.32 0.33 2.64 0.66 4 1-0.66 0.99-1.32 1.98-2 3 1.32 1.32 2.64 2.64 4 4-0.33-0.66-0.66-1.32-1-2-0.04-2-0.0435-4 0-6h8c0.33-0.66 0.66-1.32 1-2 1.32 0.66 2.64 1.32 4 2v-2c-0.99-0.33-1.98-0.66-3-1 1.18-0.217 1.18-0.217 2.38-0.438 2.59-0.44 2.59-0.44 4.62-1.56v2c0.99-0.33 1.98-0.66 3-1 0.33-0.66 0.66-1.32 1-2-0.99-0.33-1.98-0.66-3-1 1.32-0.66 2.64-1.32 4-2v-2c2.23-0.223 4.46-0.428 6.69-0.625 1.24-0.116 2.48-0.232 3.76-0.352 3.53-0.0233 5.4 0.531 8.55 1.98h3c0.33-0.99 0.66-1.98 1-3 0.66 0.33 1.32 0.66 2 1v-3h2v-2z" fill="#50A6DE"/>
<path transform="translate(211,784)" d="m0 0c3.87 4.52 6.85 9.49 9.94 14.6 4.49 7.32 9.05 14.6 13.8 21.8 4.38 6.69 8.69 13.4 12.9 20.2 2.99 4.83 6.08 9.6 9.23 14.3 1.18 2.14 1.18 2.14 1.18 5.14-7.75 1.12-7.75 1.12-10 0 0.0206 1.11 0.0412 2.23 0.0625 3.38-0.0625 3.62-0.0625 3.62-1.06 5.62h-2c-1.63-2.41-3.14-4.82-4.62-7.31-3-4.93-6.04-9.75-9.5-14.4-2.72-3.65-5.16-7.35-7.5-11.2-5.64-9.35-12.1-18.2-18.4-27.1 1-2 1-2 4-4h3c0.25-2.92 0.25-2.92 0-6-0.99-0.66-1.98-1.32-3-2v-2h-2v-8c3 2 3 2 4 6v-9z" fill="#4DA5DB"/>
<path transform="translate(443,818)" d="m0 0v74c-0.33-0.99-0.66-1.98-1-3h-2c-0.495 0.99-0.495 0.99-1 2-0.66-0.33-1.32-0.66-2-1-1.49 0.495-1.49 0.495-3 1-0.66-0.99-1.32-1.98-2-3-1.66-0.688-3.32-1.36-5-2-0.33-0.66-0.66-1.32-1-2-0.33 1.98-0.66 3.96-1 6h-1v-49c0.66 0.99 1.32 1.98 2 3 0.33-5.61 0.66-11.2 1-17h-2v-2h3c-0.0619-0.784-0.124-1.57-0.188-2.38 0.0619-0.866 0.124-1.73 0.188-2.62 5.48-3.65 8.24-2.97 15-2z" fill="#50A6DE"/>
<path transform="translate(625,801)" d="m0 0c5.26 0 5.26 0 8 1 1.69 2.31 3.13 4.54 4.56 7 0.889 1.47 1.78 2.95 2.67 4.42 0.457 0.761 0.914 1.52 1.38 2.31 2.16 3.55 4.42 7.04 6.69 10.5 0.447 0.688 0.894 1.38 1.35 2.09 0.938 1.44 1.88 2.89 2.82 4.33 1.66 2.55 3.31 5.09 4.96 7.64 1.16 1.79 2.33 3.59 3.49 5.38 0.544 0.838 1.09 1.68 1.65 2.54 0.517 0.796 1.03 1.59 1.57 2.41 0.729 1.13 0.729 1.13 1.47 2.29 0.853 1.29 1.74 2.55 2.68 3.77 1.14 1.51 1.14 1.51 2.7 4.3-0.33 1.98-0.66 3.96-1 6-7.42 0.99-7.42 0.99-15 2v-2h-2c-1.26-1.69-1.26-1.69-2.69-4.07-0.529-0.871-1.06-1.74-1.6-2.64-0.564-0.943-1.13-1.89-1.71-2.86-1.18-1.94-2.36-3.87-3.54-5.81-0.586-0.959-1.17-1.92-1.77-2.91-2.27-3.67-4.64-7.27-7.06-10.8-5.48-8.13-10.9-16.3-15.6-24.9 1.98 0.66 3.96 1.32 6 2 0.33-0.66 0.66-1.32 1-2h-2c-0.33-0.99-0.66-1.98-1-3h3c-0.33-2.97-0.66-5.94-1-9z" fill="#4DA5DB"/>
<path transform="translate(658,162)" d="m0 0h13v4h4v4h2v8c1.42 0.433 1.42 0.433 2.88 0.875 3.12 1.12 3.12 1.12 5.12 3.12v4h2v6h4v7h2c0.326 0.976 0.652 1.95 0.988 2.96 0.441 1.29 0.882 2.57 1.32 3.86 0.213 0.643 0.427 1.29 0.646 1.95 1.2 3.45 2.25 5.86 5.04 8.24 0.495 0.866 0.99 1.73 1.5 2.62 1.34 2.67 1.34 2.67 4.5 3.38v2h3v-2h2c0.33 0.99 0.66 1.98 1 3l2 2c-0.99 0.33-1.98 0.66-3 1 0.33 1.32 0.66 2.64 1 4-3.13 1.04-3.99 0.934-7 0 1.45 3.39 3.37 5.45 6 8 1.02 1.32 2.03 2.64 3 4-0.66 0.66-1.32 1.32-2 2-4-4.75-4-4.75-4-7-0.598-0.227-1.2-0.454-1.81-0.688-2.8-1.68-3.52-3.51-5.19-6.31-1.62-2.11-3.27-4.18-4.94-6.25-9.35-11.8-17.8-24.1-25.7-36.9-1.61-2.63-3.26-5.23-4.95-7.81-0.412-0.631-0.823-1.26-1.25-1.91-1.13-1.72-2.26-3.44-3.39-5.16-2.59-4.27-3.81-6.96-3.81-12z" fill="#50A6DE"/>
<path transform="translate(315,822)" d="m0 0h1v18h3v4h2v-4h3v4h2v3h6c0.168 6.96 0.328 13.9 0.482 20.9 0.0535 2.37 0.109 4.74 0.166 7.11 0.0817 3.4 0.157 6.8 0.231 10.2 0.027 1.07 0.0541 2.13 0.0819 3.23 0.0201 0.981 0.0402 1.96 0.0609 2.97 0.03 1.3 0.03 1.3 0.0606 2.63-0.0823 1.98-0.0823 1.98-1.08 2.98-6.57 0.258-11.9-0.494-18-3-0.0256-7.84-0.043-15.7-0.0549-23.5-0.00442-2.66-0.0118-5.32-0.0205-7.99-0.0905-28.4-0.0905-28.4 1.08-40.5z" fill="#50A6DE"/>
<path transform="translate(734,257)" d="m0 0c3.33 0.574 4.7 1.59 7 4h2c0.33-0.66 0.66-1.32 1-2 1.46 2.65 2 3.89 2 7l2 1c-0.99 0.495-0.99 0.495-2 1 0.33 2.31 0.66 4.62 1 7h2v5c2.05-1.84 2.05-1.84 3-4h2v4c0.99-0.33 1.98-0.66 3-1h4c0.66-2.31 1.32-4.62 2-7 2.48 0.495 2.48 0.495 5 1 0.33-0.66 0.66-1.32 1-2v3c1.31-0.0348 2.63-0.0696 3.98-0.105 1.74-0.0281 3.47-0.0554 5.21-0.082 1.3-0.0377 1.3-0.0377 2.62-0.0762 4.92-0.0566 8.16 0.0834 12.2 3.26-8.04 6.74-17.7 11.5-27.1 16.1-0.619 0.311-1.24 0.622-1.87 0.943-2.61 1.23-4.72 2-7.62 1.99-6.02-2.46-9.77-7.36-13.6-12.4-4.49-5.89-9.21-11.5-14.2-17-3.71-4.21-3.71-4.21-3.71-7.53h4v3h4c0.33-0.99 0.66-1.98 1-3 0.33 0.99 0.66 1.98 1 3h2c-0.99-1.65-1.98-3.3-3-5z" fill="#50A6DE"/>
<path transform="translate(1266 775)" d="m0 0c1.12-0.0142 2.23-0.0284 3.38-0.043 3.91 0.258 6.88 0.687 10.5 2.23 1.69 2.36 2.75 4.2 3.88 6.81 0.32 0.691 0.641 1.38 0.97 2.09 1.08 2.35 2.12 4.72 3.15 7.09 0.847 1.88 1.69 3.75 2.54 5.62 0.843 1.89 1.68 3.79 2.52 5.69 0.61 1.37 0.61 1.37 1.23 2.77 0.368 0.857 0.736 1.71 1.12 2.6 0.331 0.762 0.663 1.52 1 2.31 0.586 2.01 0.586 2.01-0.414 5.01-5.51 0.193-9.68-0.331-15-2h-3v2h-2c-2.44-4.87-4.86-9.74-7.26-14.6-0.82-1.66-1.64-3.32-2.47-4.97-1.19-2.38-2.37-4.77-3.54-7.16-0.372-0.735-0.744-1.47-1.13-2.23-2.02-4.16-3.14-7.28-2.59-12 1.83-1.83 4.67-1.17 7.12-1.19z" fill="#003282"/>
<path transform="translate(1205,800)" d="m0 0c0.99 0.33 1.98 0.66 3 1 1.07 2.25 1.07 2.25 2.12 5.44 0.632 1.87 0.632 1.87 1.28 3.78 0.243 0.733 0.487 1.47 0.738 2.22 1.01 3.02 2.06 6.02 3.11 9.03 3.41 9.76 3.41 9.76 4.76 13.7 0.335 0.963 0.67 1.93 1.01 2.92 1.08 3.29 2.02 6.63 2.97 9.96-11.2 0.33-22.4 0.66-34 1 0-5.31 0.684-8.67 2.52-13.5 0.259-0.7 0.518-1.4 0.786-2.12 0.827-2.23 1.67-4.45 2.51-6.67 1.09-2.92 2.18-5.84 3.27-8.77 0.26-0.697 0.52-1.39 0.788-2.11 1.93-5.23 3.65-10.5 5.13-15.9z" fill="#FAFDFF"/>
<path transform="translate(482,776)" d="m0 0h8v2c0.66 0.33 1.32 0.66 2 1v51h-2c-0.749-3.66-1.24-6.42 0-10h-3c-0.495 2.48-0.495 2.48-1 5h-1v-5c-1.58 0.526-1.58 0.526-3.19 1.06-3.61 0.887-5.34 0.99-8.81-0.0625-0.836-4.37-1.13-8.49-1.13-12.9-0.00129-1.31-0.00258-2.61-0.00391-3.96 0.00314-1.01 0.00314-1.01 0.00635-2.04 0.00536-2.05 3.66e-5 -4.11-0.00635-6.16 0.00129-1.31 0.00258-2.61 0.00391-3.96 0.00113-1.19 0.00226-2.37 0.00342-3.6 0.124-3.2 0.528-6.2 1.13-9.34 2.97 0.33 5.94 0.66 9 1v-4z" fill="#52A9DF"/>
<path transform="translate(995,317)" d="m0 0h4c0.103 1.22 0.206 2.43 0.312 3.69 0.45 3.72 1.47 6.23 3.69 9.31 0.33-0.33 0.66-0.66 1-1-0.33-0.99-0.66-1.98-1-3 2.69-0.747 4.52-1.12 7.25-0.438 1.75 1.44 1.75 1.44 2.5 4.56 0.124 1.42 0.124 1.42 0.25 2.88h2c-0.33 0.66-0.66 1.32-1 2l-2-1c-0.66 2.64-1.32 5.28-2 8h2c0.205 0.927 0.41 1.85 0.621 2.81 0.269 1.2 0.539 2.4 0.816 3.63 0.267 1.19 0.534 2.39 0.809 3.62 0.455 2.81 0.455 2.81 1.75 3.94 0.21 1.79 0.368 3.58 0.5 5.38 0.232 3.15 0.499 5.62 1.5 8.62 0.349 3.16 0.47 6.33 0.625 9.5 0.045 0.898 0.0901 1.8 0.136 2.72 0.275 6.33 0.176 12.5-0.761 18.8h-5l-2-6h-1c-0.0699-0.713-0.14-1.43-0.212-2.16-2.14-21.4-5.3-41.4-12.1-61.8-0.896-2.68-1.76-5.37-2.61-8.07-0.236-0.733-0.472-1.47-0.715-2.22-0.348-1.71-0.348-1.71 0.652-3.71z" fill="#50A6DE"/>
<path transform="translate(612 775)" d="m0 0c2.76 0.32 2.76 0.32 4.85 2.3 0.61 0.913 1.22 1.83 1.85 2.77 0.67 0.996 1.34 1.99 2.03 3.02 9.54 15.2 9.54 15.2 10 19.2-1.44 2.25-1.44 2.25-3 4-0.186-0.959-0.186-0.959-0.375-1.94-0.206-0.681-0.413-1.36-0.625-2.06-0.66-0.33-1.32-0.66-2-1 0.247 1.39 0.247 1.39 0.5 2.81 0.5 3.19 0.5 3.19 0.5 6.19-0.99 0.495-0.99 0.495-2 1v2h2c-0.33 0.99-0.66 1.98-1 3-4.06-1.11-6.22-1.79-8.54-5.39-1.22-2.51-2.35-5.05-3.46-7.61-0.33-0.33-0.66-0.66-1-1-0.0406-1.67-0.0427-3.33 0-5h-4c-0.103-1.15-0.206-2.31-0.312-3.5-0.575-4.55-1.81-8.31-3.69-12.5-3.25-2.46-3.25-2.46-9-3-0.33 13.5-0.66 27.1-1 41h-2c-0.0493-5.8-0.0857-11.6-0.11-17.4-0.0101-1.97-0.0237-3.95-0.041-5.92-0.0242-2.83-0.0356-5.67-0.0444-8.5-0.0103-0.887-0.0206-1.77-0.0313-2.69-3.98e-4 -2.16 0.104-4.32 0.227-6.48 2.88-2.88 5.23-2.41 9.25-2.62 1.3-0.0748 2.61-0.15 3.95-0.227 2.35-0.0918 4.7-0.237 7.04-0.469z" fill="#50A6DE"/>
<path transform="translate(444,803)" d="m0 0c-0.33 4.95-0.66 9.9-1 15h-6c-0.66 0.33-1.32 0.66-2 1-2 0.359-4 0.695-6 1-0.33 1.65-0.66 3.3-1 5h-3v2h2c0.144 12.4-0.285 24.7-1 37h-1c-0.0871 3.1-0.14 6.21-0.188 9.31-0.0251 0.881-0.0503 1.76-0.0762 2.67-0.00967 0.848-0.0193 1.7-0.0293 2.57-0.0157 0.78-0.0314 1.56-0.0476 2.36 0.43 2.63 1.26 3.46 3.34 5.08 0.866 0.33 1.73 0.66 2.62 1 1.18 0.495 1.18 0.495 2.38 1 0.33 0.99 0.66 1.98 1 3 2.17-0.833 2.17-0.833 3-3 0.66 0.66 1.32 1.32 2 2 1.49-0.495 1.49-0.495 3-1 0.8 3.29 1.1 4.71 0 8-2.23 0.0814-4.46 0.139-6.69 0.188-1.86 0.0522-1.86 0.0522-3.76 0.105-3.9-0.322-5.54-0.842-8.55-3.29-0.595-2.85-0.595-2.85-0.552-6.37 0.00361-1.31 0.00721-2.63 0.0109-3.98 0.0289-1.44 0.0581-2.87 0.0877-4.31 0.0119-1.47 0.0214-2.94 0.0286-4.41 0.0248-3.87 0.0787-7.74 0.139-11.6 0.0804-5.46 0.121-10.9 0.167-16.4 0.0243-2.91 0.0595-5.82 0.103-8.72 0.0162-1.31 0.0324-2.62 0.0491-3.97 0.0173-1.16 0.0346-2.32 0.0524-3.51 0.105-2.69 0.105-2.69-1.09-4.73-0.387-3.11-0.514-6.24-0.688-9.38-0.0599-0.864-0.12-1.73-0.182-2.62-0.0471-0.835-0.0941-1.67-0.143-2.53-0.046-0.762-0.092-1.52-0.139-2.31 0.173-2.48 0.912-4.03 2.15-6.17h2v3h2v-3h3v3h2v-3c7.5-1.12 7.5-1.12 12 0z" fill="#53AAE0"/>
<path transform="translate(990,819)" d="m0 0c4.23 3.68 6.74 8.24 9.56 13 0.958 1.61 1.92 3.21 2.88 4.81 0.42 0.708 0.839 1.42 1.27 2.14 1.27 2.11 1.27 2.11 3 4.13 0.425 0.63 0.851 1.26 1.29 1.91-0.812 2.75-0.812 2.75-2 5h-2c-0.33 1.98-0.66 3.96-1 6h-2c0.33 0.784 0.66 1.57 1 2.38 1.11 2.9 1 4.52 1 7.62h2v3c-3.66-0.898-5.39-2.19-7.39-5.27-0.819-1.36-1.62-2.73-2.42-4.1-0.872-1.45-1.75-2.91-2.62-4.36-0.646-1.08-0.646-1.08-1.3-2.19-2.92-4.8-6.12-9.42-9.26-14.1-1.34-2-2.67-4-4-6 0.99-0.33 1.98-0.66 3-1 0.66-0.99 1.32-1.98 2-3 1.32 0.66 2.64 1.32 4 2-0.33-0.66-0.66-1.32-1-2-0.0402-2.33-0.0432-4.67 0-7h2v-2c0.66-0.33 1.32-0.66 2-1z" fill="#003281"/>
<path transform="translate(366,866)" d="m0 0c1.32 0.66 2.64 1.32 4 2v2h2v3h3c0.454 0.639 0.908 1.28 1.38 1.94 1.49 2.31 1.49 2.31 4.31 2.81 0.763 0.0825 1.53 0.165 2.31 0.25l1-2c1.32 0.66 2.64 1.32 4 2 0.124-0.557 0.248-1.11 0.375-1.69 0.625-2.31 0.625-2.31 1.69-4.94 1.06-2.26 1.06-2.26 0.938-4.38h4c1.27 3.56 0.737 5.42-0.73 8.84-0.391 0.917-0.782 1.83-1.19 2.78-0.42 0.95-0.839 1.9-1.27 2.88-0.6 1.43-0.6 1.43-1.21 2.88-4.33 9.99-4.33 9.99-9.6 12.6-3.97 0.542-5.59 0.275-8.96-1.99-3.68-3.22-5.25-7.01-6.98-11.5-0.315-0.746-0.63-1.49-0.955-2.26-1.64-4.08-2.66-6.91-1.11-11.2l1-2h2v-2z" fill="#52A9DF"/>
<path transform="translate(939,285)" d="m0 0c0.99 0.33 1.98 0.66 3 1v2h2c0.33 0.66 0.66 1.32 1 2l3-3c2.31 0.66 4.62 1.32 7 2v2h2c-0.66 4.95-1.32 9.9-2 15-0.33-0.66-0.66-1.32-1-2h-4v5h-3c-0.33 1.98-0.66 3.96-1 6h-6c-0.33 1.32-0.66 2.64-1 4h-3v-4c-0.784 0.206-1.57 0.413-2.38 0.625-0.866 0.124-1.73 0.248-2.62 0.375-2-2-2-2-2.12-4.62 0.0412-0.784 0.0825-1.57 0.125-2.38 5.75-0.125 5.75-0.125 8 1 0.33-1.32 0.66-2.64 1-4v3c1.32 0.33 2.64 0.66 4 1v-10c-2.51 1.26-2.87 2.5-4 5h-3c-1.24-2.97-2.3-5.85-3-9h-2c1.41-3.22 3.1-5.32 5.62-7.75 0.632-0.614 1.26-1.23 1.91-1.86 0.723-0.688 0.723-0.688 1.46-1.39z" fill="#50A6DE"/>
<path transform="translate(561,345)" d="m0 0c2 3.75 2 3.75 2 6-0.99 0.33-1.98 0.66-3 1-0.33 0.66-0.66 1.32-1 2h4c0.33-1.98 0.66-3.96 1-6 0.99 0.33 1.98 0.66 3 1-0.205 0.906-0.41 1.81-0.621 2.75-1.35 6.1-2.63 12.1-3.2 18.3-0.165 1.78-0.418 3.54-0.68 5.31-0.67 4.86-1.08 9.74-1.5 14.6h-2v-2h-2v2c-7.75 0.125-7.75 0.125-10-1-0.0823-3.04 0.0239-5.07 1-8-0.135-1.99-0.135-1.99-0.5-4.12-0.625-4.82-0.186-9.08 0.5-13.9h4c1.65-0.66 3.3-1.32 5-2v-11h2c0.66-1.65 1.32-3.3 2-5z" fill="#50A6DE"/>
<path transform="translate(931,317)" d="m0 0h1v5h7v2h-3v3c0.99 0.33 1.98 0.66 3 1-0.66 0.66-1.32 1.32-2 2-0.33 0.66-0.66 1.32-1 2-0.66-1.32-1.32-2.64-2-4h-2c0.0206 0.804 0.0412 1.61 0.0625 2.44-0.0625 2.56-0.0625 2.56-1.06 3.56-0.233 1.68-0.413 3.37-0.562 5.06-0.0838 0.919-0.168 1.84-0.254 2.79-0.0909 1.07-0.0909 1.07-0.184 2.15h-2v2h-2v4h4c-0.33 2.31-0.66 4.62-1 7-2.48 0.495-2.48 0.495-5 1v3c0.99 0.33 1.98 0.66 3 1-1.46 0.054-2.92 0.0928-4.38 0.125-0.812 0.0232-1.62 0.0464-2.46 0.0703-2.16-0.195-2.16-0.195-4.16-2.2 0.33-0.66 0.66-1.32 1-2-0.66-0.33-1.32-0.66-2-1v-2h2v-5c1.49-0.495 1.49-0.495 3-1 0.33-0.33 0.66-0.66 1-1v-3c-0.99-0.33-1.98-0.66-3-1v-3h-2c-0.33 1.32-0.66 2.64-1 4l-2-1v-3h-2v-2h2c0.144-0.784 0.289-1.57 0.438-2.38 0.562-2.62 0.562-2.62 1.56-4.62 5.75-0.125 5.75-0.125 8 1-0.0206-1.28-0.0412-2.56-0.0625-3.88-0.0625-3.88-0.0625-3.88 1.06-6.12 3.06-0.625 3.06-0.625 6-1 0.33-1.65 0.66-3.3 1-5z" fill="#50A6DE"/>
<path transform="translate(893 776)" d="m0 0c1.3 0.00322 2.6 0.00645 3.95 0.00977 1.38 0.00836 2.76 0.0168 4.14 0.0254 1.39 0.00501 2.78 0.00958 4.16 0.0137 3.4 0.0118 6.81 0.0283 10.2 0.0488 1.53 3.06 1.1 6.27 1.06 9.62-0.0206 2.43-0.0412 4.87-0.0625 7.38h-22v-4c-0.577-0.0619-1.15-0.124-1.75-0.188-3.24-1.17-4.45-2.94-6.25-5.81 0.25-2.31 0.25-2.31 1-4h-3v-2c2.87-1.44 5.34-1.11 8.54-1.1z" fill="#003283"/>
<path transform="translate(747 782)" d="m0 0c1.02 0.402 1.02 0.402 2.06 0.812l-2 2c0.33 0.66 0.66 1.32 1 2h-3v3c-0.99 0.495-0.99 0.495-2 1-0.951 3.28-1.1 4.7 0 8h2c0.66-0.66 1.32-1.32 2-2v2c1.32 0.33 2.64 0.66 4 1-1.53 3.44-3.45 6.22-6 9h-3v-2c-3.3-1.65-6.6-3.3-10-5v2c-1.32-0.66-2.64-1.32-4-2-0.387-3.33-0.212-4.69 1.72-7.5 11.8-12.7 11.8-12.7 17.2-12.3z" fill="#51A7DF"/>
<path transform="translate(781,313)" d="m0 0c0.922 0.451 0.922 0.451 1.86 0.91 0.808 0.38 1.62 0.761 2.45 1.15 1.2 0.574 1.2 0.574 2.43 1.16 2.38 1.07 2.38 1.07 5.26-0.223 1.5 1.38 1.5 1.38 3 3v2h4v2h2v2c3.3 0.33 6.6 0.66 10 1v2c-2.31 0.33-4.62 0.66-7 1v1c2.31 0.33 4.62 0.66 7 1-0.495 1.49-0.495 1.49-1 3-6.02 0.446-9.7-0.821-14.9-3.56-1.05-0.54-1.05-0.54-2.11-1.09-14-7.43-14-7.43-16-13.3 0.99-0.33 1.98-0.66 3-1v-2z" fill="#003283"/>
<path transform="translate(257,857)" d="m0 0h2c0.577 1.03 1.15 2.06 1.75 3.12 1.94 3.4 4.04 6.64 6.25 9.88l-1 2c-0.66-0.33-1.32-0.66-2-1-0.33 0.99-0.66 1.98-1 3h-7v5c-3.73-0.847-5.74-1.75-8.5-4.44-2.18-5.18-0.896-9.26 0.5-14.6 4.46-0.495 4.46-0.495 9-1v-2z" fill="#50A6DE"/>
<path transform="translate(152,822)" d="m0 0h1v32c-2.47-0.99-2.47-0.99-5-2v-3c-0.66 1.32-1.32 2.64-2 4-0.99-0.33-1.98-0.66-3-1v-3h-3c-0.0909-0.888-0.0909-0.888-0.184-1.79-0.437-4.12-0.903-8.16-1.82-12.2 1.6-0.196 3.21-0.381 4.81-0.562 0.893-0.104 1.79-0.209 2.71-0.316 2.48-0.121 2.48-0.121 5.48 0.879-0.0954-0.771-0.191-1.54-0.289-2.34-0.111-1-0.222-2.01-0.336-3.04-0.116-0.998-0.232-2-0.352-3.02-0.00773-0.859-0.0155-1.72-0.0234-2.6 0.66-0.66 1.32-1.32 2-2z" fill="#4DA5DB"/>
<path transform="translate(563,268)" d="m0 0c3.68 2.32 7.34 4.65 11 7 1.09 0.695 2.18 1.39 3.3 2.11 1.06 0.687 2.11 1.37 3.2 2.08 0.98 0.633 1.96 1.27 2.97 1.92 2.99 2.24 5.26 4.05 5.82 7.87-0.736 6.91-3.7 12.2-7.29 18-1.09-3.26-0.743-5.32-0.258-8.66 0.452-4.1 0.334-8.22 0.258-12.3-0.33 2.31-0.66 4.62-1 7h-3v-2h-2c-1.14-4.27-2-7.56-2-12-2.97-0.495-2.97-0.495-6-1v-2c-0.66-0.66-1.32-1.32-2-2-0.66-0.66-1.32-1.32-2-2v-2c-0.66-0.33-1.32-0.66-2-1 0.33-0.33 0.66-0.66 1-1z" fill="#50A6DE"/>
<path transform="translate(282,825)" d="m0 0c2.33 3.5 3.13 5.9 3.1 10-0.00322 0.757-0.00645 1.51-0.00977 2.29-0.00838 0.786-0.0168 1.57-0.0254 2.38-0.00451 0.797-0.00902 1.59-0.0137 2.42-0.0118 1.97-0.0297 3.93-0.0488 5.9-0.619 0.247-1.24 0.495-1.88 0.75-2.58 1.26-2.58 1.26-4.12 5.25-0.66-3.3-1.32-6.6-2-10h-2v-4h-3c-0.488-7.31-0.488-7.31 1.69-10.4 2.37-1.67 4.58-2.67 7.31-3.62 0.33-0.33 0.66-0.66 1-1z" fill="#50A6DE"/>
<path transform="translate(406,801)" d="m0 0c1.32 0.33 2.64 0.66 4 1 0.124 0.742 0.248 1.49 0.375 2.25 0.58 2.55 1.36 4.48 2.62 6.75 0.99-0.33 1.98-0.66 3-1 1.12 7.75 1.12 7.75 0 10h-4c-0.33 1.32-0.66 2.64-1 4-0.66-0.33-1.32-0.66-2-1v-2c-0.99-0.33-1.98-0.66-3-1 0.33 1.32 0.66 2.64 1 4-2.31-0.66-4.62-1.32-7-2-1.32-3.02-0.941-4.17 0.18-7.35 0.554-1.24 1.12-2.48 1.7-3.71 2.23-4.9 2.23-4.9 4.12-9.94z" fill="#4DA5DB"/>
<path transform="translate(1454,787)" d="m0 0c11.1 8.22 16.1 21 18.6 34.3 0.641 4.61 0.585 9.18 0.5 13.8-0.00902 0.956-0.018 1.91-0.0273 2.9-0.0233 2.33-0.0559 4.65-0.0977 6.98h-1c-0.647-8.01-1.17-16-1-24h-2c-2.12-3.53-2.53-6.94-3-11h-2c-0.66-0.99-1.32-1.98-2-3h-4c-0.33-1.32-0.66-2.64-1-4h-2v-2h-2c0.66-2.64 1.32-5.28 2-8 0.433 0.959 0.433 0.959 0.875 1.94 0.953 2.21 0.953 2.21 3.12 3.06-0.66-0.99-1.32-1.98-2-3v-3h-2c-0.33-1.65-0.66-3.3-1-5z" fill="#003282"/>
<path transform="translate(671,863)" d="m0 0c2.05 1.85 3.73 3.47 5 5.94 0 3.23-1.89 4.77-4 7.06-1.32-0.33-2.64-0.66-4-1v9h-4c-1.67-2.1-2.98-4.02-4.31-6.31-0.558-0.892-0.558-0.892-1.13-1.8-1.05-1.75-1.05-1.75-2.56-4.88 0.33-0.99 0.66-1.98 1-3 6.43-0.495 6.43-0.495 13-1 0.33-1.32 0.66-2.64 1-4z" fill="#50A6DE"/>
<path transform="translate(354,812)" d="m0 0h3c0.28 0.802 0.559 1.6 0.848 2.43 1.93 5.48 3.88 10.9 6.04 16.3 0.318 0.797 0.637 1.59 0.965 2.42 0.629 1.57 1.26 3.13 1.91 4.69 1.54 3.84 2.66 6.91 2.24 11.1-0.66-0.33-1.32-0.66-2-1-0.124-0.639-0.248-1.28-0.375-1.94-0.434-2.26-0.434-2.26-2.69-3.31-0.639-0.247-1.28-0.495-1.94-0.75v-2h-3c-0.33-1.65-0.66-3.3-1-5h-3c-0.167-3.46-0.334-6.92-0.5-10.4-0.0477-0.985-0.0954-1.97-0.145-2.98-0.0451-0.941-0.0902-1.88-0.137-2.85-0.0419-0.869-0.0838-1.74-0.127-2.63-0.059-1.38-0.0918-2.77-0.0918-4.15z" fill="#4DA5DB"/>
<path transform="translate(423,860)" d="m0 0h1c0.0146 0.681 0.0292 1.36 0.0442 2.06 0.0744 3.08 0.171 6.17 0.268 9.25 0.0226 1.07 0.0451 2.14 0.0684 3.25 0.0354 1.03 0.0709 2.06 0.107 3.12 0.0262 0.948 0.0524 1.9 0.0793 2.87 0.503 2.85 1.15 3.73 3.43 5.45 0.866 0.33 1.73 0.66 2.62 1 0.784 0.33 1.57 0.66 2.38 1 0.33 0.99 0.66 1.98 1 3 2.17-0.833 2.17-0.833 3-3 0.66 0.66 1.32 1.32 2 2 0.99-0.33 1.98-0.66 3-1 0.8 3.29 1.1 4.71 0 8-2.23 0.0814-4.46 0.139-6.69 0.188-1.86 0.0522-1.86 0.0522-3.76 0.105-3.94-0.325-5.56-0.744-8.55-3.29-0.457-2.78-0.587-4.96-0.488-7.73 0.00707-0.75 0.0141-1.5 0.0214-2.27 0.028-2.4 0.0907-4.79 0.154-7.18 0.0251-1.62 0.0479-3.25 0.0684-4.87 0.0551-3.98 0.141-7.96 0.244-11.9z" fill="#52A9DF"/>
<path transform="translate(1362,834)" d="m0 0h3v3h10c0.66 4.29 1.32 8.58 2 13h-2c-0.289-1.13-0.578-2.27-0.875-3.44-0.371-1.18-0.743-2.35-1.12-3.56l-2-1c0.33 4.29 0.66 8.58 1 13h-2c-0.206-0.804-0.412-1.61-0.625-2.44-0.454-0.846-0.908-1.69-1.38-2.56-3.05-0.898-3.05-0.898-6-1-0.33 1.65-0.66 3.3-1 5h-2c-0.33-3.3-0.66-6.6-1-10 1.48 0.99 1.48 0.99 3 2 0.33-3.96 0.66-7.92 1-12z" fill="#003280"/>
<path transform="translate(559,840)" d="m0 0c1.94 1.44 1.94 1.44 3 4 0.24 3.02 0.15 5.98 0 9v3 2c-5.5 0-5.5 0-8-1-1.72-2.58-2-3.85-2-7h-2v-2h-2v-2c0.66-0.33 1.32-0.66 2-1v-2h-2v-2c3.7-1.19 7.13-1.35 11-1z" fill="#51A7DF"/>
<path transform="translate(791,775)" d="m0 0v2c-6.38 0.824-12.6 1.12-19 1-0.33 1.32-0.66 2.64-1 4-0.619-0.206-1.24-0.413-1.88-0.625-0.701-0.124-1.4-0.247-2.12-0.375l-2 2c-3.62-0.375-3.62-0.375-7-1v-3c-2.97 0.342-2.97 0.342-6 1-0.33 0.66-0.66 1.32-1 2-0.33-0.66-0.66-1.32-1-2 1-2 1-2 3.88-3.04 12.8-3.56 23.9-4.85 37.1-1.96z" fill="#50A6DE"/>
<path transform="translate(684,643)" d="m0 0h2v11c1.32 0.33 2.64 0.66 4 1-1.32 0.33-2.64 0.66-4 1v3h4v4c2.31 0.33 4.62 0.66 7 1v4c-4.73-1.48-9.41-3.07-14-4.94-0.742-0.298-1.49-0.596-2.25-0.902-1.75-1.16-1.75-1.16-2.68-2.84-0.102-3.56 1.4-6.42 2.87-9.57 0.291-0.65 0.581-1.3 0.881-1.97 0.717-1.6 1.45-3.19 2.18-4.78z" fill="#003686"/>
<path transform="translate(757,251)" d="m0 0h6c0.33 1.32 0.66 2.64 1 4h2c-0.33 2.31-0.66 4.62-1 7-0.598-0.186-1.2-0.371-1.81-0.562-2.35-0.658-2.35-0.658-5.19 0.562v2h-2v-2c-0.699 0.0348-1.4 0.0696-2.12 0.105-1.37 0.0406-1.37 0.0406-2.76 0.082-0.905 0.0348-1.81 0.0696-2.74 0.105-1.18-0.145-1.18-0.145-2.38-0.293-0.66-0.99-1.32-1.98-2-3-2.06-0.724-2.06-0.724-4-1 1.32-1.32 2.64-2.64 4-4 0.33 0.99 0.66 1.98 1 3 3.29 0.8 4.71 1.1 8 0 0.733-2.02 0.733-2.02 1-4h2v2c0.66-0.66 1.32-1.32 2-2-0.33-0.66-0.66-1.32-1-2z" fill="#50A6DE"/>
<path transform="translate(811,786)" d="m0 0c3.2 3 6.09 6.17 8.88 9.56 0.924 1.12 0.924 1.12 1.87 2.25 1.26 2.18 1.26 2.18 0.953 4.46-0.229 0.568-0.459 1.14-0.695 1.72h-7v-2c-0.784-0.0825-1.57-0.165-2.38-0.25-2.62-0.75-2.62-0.75-4-2.31-0.941-3.67-0.246-6.71 0.375-10.4h2v-3z" fill="#50A6DE"/>
<path transform="translate(845,485)" d="m0 0 2 1c-0.33 0.33-0.66 0.66-1 1-1.78 14.7-1.11 29.7-1.06 44.5 0.00503 2.58 0.00959 5.15 0.0137 7.73 0.0109 6.26 0.0276 12.5 0.0488 18.8h-2c-1.38-12.6-1.11-25.2-1.06-37.8 0.00502-2.25 0.00959-4.51 0.0137-6.76 0.0109-5.48 0.0276-11 0.0488-16.4h2c-0.0116-0.782-0.0232-1.56-0.0352-2.37-0.00902-1.01-0.018-2.02-0.0273-3.07-0.0116-1.01-0.0232-2.02-0.0352-3.06 0.0977-2.5 0.0977-2.5 1.1-3.5z" fill="#4EA5DC"/>
<path transform="translate(1066,803)" d="m0 0h4v2c3.47-0.458 6.67-0.891 10-2 0.125 7.62 0.125 7.62-1 11-0.626 0.0606-1.25 0.121-1.9 0.184-0.817 0.0838-1.63 0.168-2.48 0.254-0.812 0.0812-1.62 0.162-2.46 0.246-2.21 0.207-2.21 0.207-4.16 1.32v-2h-2c-1.29-7.43-1.29-7.43 0-11z" fill="#003283"/>
<path transform="translate(1351,778)" d="m0 0c-2.25 2.5-2.25 2.5-5 5h-4v3c-3.42 0.74-6.5 1-10 1 0.33-1.65 0.66-3.3 1-5h-2c0.375-2.44 0.375-2.44 1-5 5.75-2.87 13.2-0.696 19 1z" fill="#003280"/>
<path transform="translate(525,376)" d="m0 0h3v4h2v-4h3c0.197 1.42 0.382 2.83 0.562 4.25 0.104 0.789 0.209 1.58 0.316 2.39 0.121 2.36-0.183 4.11-0.879 6.36h-3c-0.33 0.66-0.66 1.32-1 2-0.33-0.66-0.66-1.32-1-2h-3c-0.33 0.66-0.66 1.32-1 2v-3h-2v-3h2v-2h-2v-3h3v-4z" fill="#4DA5DB"/>
<path transform="translate(440,841)" d="m0 0h1c0.33 14.2 0.66 28.4 1 43-0.99-0.33-1.98-0.66-3-1-2.47-14.4-1.76-27.6 1-42z" fill="#4DA5DB"/>
<path transform="translate(1362,834)" d="m0 0h3v5h5v3h-5c0.33 2.31 0.66 4.62 1 7h-4c-0.33 1.65-0.66 3.3-1 5h-2c-0.33-3.3-0.66-6.6-1-10 1.48 0.99 1.48 0.99 3 2 0.33-3.96 0.66-7.92 1-12z" fill="#003282"/>
<path transform="translate(273 776)" d="m0 0c1.12 0.0058 1.12 0.0058 2.26 0.0117 1.11-0.0058 1.11-0.0058 2.25-0.0117 5.56 0.0101 5.56 0.0101 7.81 1.14v12h-1v-7c-0.763 0.351-1.53 0.701-2.31 1.06-2.69 0.938-2.69 0.938-5.69-0.0625 0.33-1.32 0.66-2.64 1-4-3.3-0.33-6.6-0.66-10-1v8h-1c-0.0269-1.48-0.0463-2.96-0.0625-4.44-0.0116-0.824-0.0232-1.65-0.0352-2.5 0.204-4.31 3.15-3.2 6.78-3.2z" fill="#50A6DE"/>
<path transform="translate(1453,828)" d="m0 0h1c0.124 0.949 0.247 1.9 0.375 2.88 0.342 3.21 0.342 3.21 2.62 5.12 0.195 3.04 0.195 3.04 0.125 6.62-0.018 1.19-0.0361 2.38-0.0547 3.6-0.0232 0.915-0.0464 1.83-0.0703 2.77-1.65 0.66-3.3 1.32-5 2-0.0271-2.9-0.0469-5.79-0.0625-8.69-0.00838-0.817-0.0168-1.63-0.0254-2.47-0.0165-4.08 0.0575-7.85 1.09-11.8z" fill="#003282"/>
<path transform="translate(475,873)" d="m0 0c0.99 0.33 1.98 0.66 3 1 0.33 1.98 0.66 3.96 1 6 3.7-0.888 7.35-1.95 11-3l-1 2h-2v10c-2.5-1.38-2.5-1.38-5-3v-2c-0.99-0.33-1.98-0.66-3-1-1.17-1.78-1.17-1.78-2.19-3.94-0.344-0.71-0.688-1.42-1.04-2.15-0.77-1.91-0.77-1.91-0.77-3.91z" fill="#51A7DF"/>
<path transform="translate(1155,884)" d="m0 0h2c0.33 0.99 0.66 1.98 1 3 1.98 5.76 1.98 5.76 7 9h-12c-1.41-2.82-0.509-4.17 0.438-7.12 0.287-0.91 0.575-1.82 0.871-2.76 0.228-0.699 0.456-1.4 0.691-2.12z" fill="#003282"/>
<path transform="translate(536 503)" d="m0 0c0.866 0.124 1.73 0.248 2.62 0.375 1.69 2.44 1.69 2.44 3 5l2 1v2h2v2h2c2.17 2.82 3.09 4.22 2.69 7.81-0.227 0.722-0.454 1.44-0.688 2.19h-2c-0.186-1.42-0.186-1.42-0.375-2.88-0.342-3.21-0.342-3.21-2.62-5.12-0.474-0.701-0.949-1.4-1.44-2.12-0.773-0.928-0.773-0.928-1.56-1.88h-3v-3c-1.63-3.12-1.63-3.12-4.12-3.69-0.619-0.103-1.24-0.206-1.88-0.312 1-1 1-1 3.38-1.38z" fill="#50A6DE"/>
<path transform="translate(405,843)" d="m0 0c1 2 1 2 0.441 3.95-0.29 0.719-0.58 1.44-0.879 2.18-0.287 0.724-0.575 1.45-0.871 2.2-0.228 0.554-0.456 1.11-0.691 1.68l-1-2c-2.13-0.467-2.13-0.467-4.56-0.625-0.826-0.0748-1.65-0.15-2.5-0.227-0.638-0.049-1.28-0.098-1.93-0.148 2-2 2-2 5-3-1.32-0.66-2.64-1.32-4-2 1.66-1.66 3.78-1.36 6.06-1.56 1.38-0.126 1.38-0.126 2.79-0.254 0.71-0.0606 1.42-0.121 2.15-0.184z" fill="#52A9DF"/>
<path transform="translate(720,240)" d="m0 0c1.38 1.29 2.71 2.63 4 4v2c1.32 0.66 2.64 1.32 4 2v3h2v2c1.32 0.33 2.64 0.66 4 1-0.33 1.65-0.66 3.3-1 5-4.02-2.9-6.37-5.82-9-10-1.65-2.35-3.32-4.67-5-7 0.33-0.66 0.66-1.32 1-2z" fill="#50A6DE"/>
<path transform="translate(1183,843)" d="m0 0v3c0.0348 0.761 0.0696 1.52 0.105 2.3 0.28 8.79 0.28 8.79-3.11 12.7h-2c-0.0973-5.74 0.173-10.5 2-16 0.99-0.66 1.98-1.32 3-2z" fill="#003485"/>
<path transform="translate(350,826)" d="m0 0c2 3 2.99 5.54 4.12 8.94 0.353 1.04 0.706 2.08 1.07 3.15 0.805 2.91 0.805 2.91 0.805 6.91h-2c-0.33-1.65-0.66-3.3-1-5h-2c-0.169-1.58-0.335-3.17-0.5-4.75-0.0928-0.882-0.186-1.76-0.281-2.67-0.219-2.58-0.219-2.58-0.219-6.58z" fill="#4DA5DB"/>
<path transform="translate(279,860)" d="m0 0c0.33 1.32 0.66 2.64 1 4 1.32 0.33 2.64 0.66 4 1 0.33 2.64 0.66 5.28 1 8h-2l-1 2-1-2c-0.66 0.66-1.32 1.32-2 2-1.26-3.77-0.371-5.37 1-9-0.33-0.33-0.66-0.66-1-1-0.0406-1.67-0.0427-3.33 0-5z" fill="#51A7DF"/>
<path transform="translate(182,778)" d="m0 0h1c0.33 5.28 0.66 10.6 1 16h1c0.33 3.96 0.66 7.92 1 12-4-4-4-4-4.45-6.66 0.0209-0.985 0.0419-1.97 0.0635-2.98 0.0129-1.07 0.0258-2.14 0.0391-3.24 0.0335-1.11 0.067-2.22 0.102-3.37 0.018-1.13 0.0361-2.25 0.0547-3.41 0.0471-2.78 0.113-5.56 0.195-8.34z" fill="#52A8DF"/>
<path transform="translate(475 776)" d="m0 0c1.24 0.0174 1.24 0.0174 2.5 0.0352 0.826 0.00902 1.65 0.018 2.5 0.0273 0.638 0.0116 1.28 0.0232 1.93 0.0352 0.33 0.66 0.66 1.32 1 2l-1 2c-2.97-0.33-5.94-0.66-9-1v6h-1c-0.0977-6.15-0.0977-6.15 0-8 1-1 1-1 3.07-1.1z" fill="#4FA6DD"/>
<path transform="translate(940,788)" d="m0 0 4 1c0.125 2.88 0.125 2.88 0 6l-2 2c-0.648 2.57-0.648 2.57-1 5h-1c-0.195-1.96-0.38-3.92-0.562-5.88-0.104-1.09-0.209-2.18-0.316-3.3-0.121-2.82-0.121-2.82 0.879-4.82z" fill="#003280"/>
<path transform="translate(741,280)" d="m0 0c2.75-0.25 2.75-0.25 6 0 2.38 2 2.38 2 4 4l-2 1v3c-4.21-1.5-5.74-4.29-8-8z" fill="#4DA5DB"/>
<path transform="translate(1459,836)" d="m0 0h2c1.32 2.64 1.1 4.68 1.06 7.62-0.00902 1-0.018 2.01-0.0273 3.04-0.0116 0.771-0.0232 1.54-0.0352 2.34h-3v-13z" fill="#003283"/>
<path transform="translate(795,329)" d="m0 0c5.61 0.66 11.2 1.32 17 2-0.33 0.99-0.66 1.98-1 3-6.26 0.533-10.5-1.18-16-4v-1z" fill="#003687"/>
<path transform="translate(203,801)" d="m0 0c0.66 1.98 1.32 3.96 2 6h-3c0.33 1.98 0.66 3.96 1 6h-2c-1.42-3.82-2.24-6.91-2-11 2-1 2-1 4-1z" fill="#53AAE0"/>
<path transform="translate(419,775)" d="m0 0c3.62-0.0289 7.25-0.0468 10.9-0.0625 1.55-0.0126 1.55-0.0126 3.13-0.0254 0.986-0.00322 1.97-0.00645 2.99-0.00977 1.37-0.00786 1.37-0.00786 2.76-0.0159 2.25 0.114 2.25 0.114 4.25 1.11v2c-1.98 0.33-3.96 0.66-6 1l-1-2c-5.61-0.33-11.2-0.66-17-1v-1z" fill="#51A8DE"/>
<path transform="translate(386,856)" d="m0 0c0.33 0.99 0.66 1.98 1 3h-3v-2c0.66-0.33 1.32-0.66 2-1zm-3 3c0.33 0.99 0.66 1.98 1 3h3v6c-0.99 0.33-1.98 0.66-3 1-1.8-2.76-2.01-3.89-1.62-7.25 0.206-0.908 0.413-1.82 0.625-2.75z" fill="#52A9DF"/>
<path transform="translate(1362,834)" d="m0 0h3v5h5v3h-5v-2h-3v-6z" fill="#003484"/>
<path transform="translate(851,446)" d="m0 0c0.99 0.66 1.98 1.32 3 2-0.66 3.96-1.32 7.92-2 12h-3c0.566-4.69 1.19-9.35 2-14z" fill="#51A7DF"/>
<path transform="translate(371,883)" d="m0 0c1.88 3.26 2.67 6.24 3 10-0.66 0.66-1.32 1.32-2 2-2.52-1.97-2.99-2.97-3.69-6.19-0.103-0.928-0.206-1.86-0.312-2.81l2 1c0.33-1.32 0.66-2.64 1-4z" fill="#51A7DF"/>
<path transform="translate(884,355)" d="m0 0c0.33 0.66 0.66 1.32 1 2-1.14 2.79-1.14 2.79-2.81 6.06-0.543 1.08-1.09 2.17-1.64 3.29-1.54 2.65-1.54 2.65-3.54 3.65 1.8-9.74 1.8-9.74 5-14l2-1z" fill="#50A6DE"/>
<path transform="translate(694,198)" d="m0 0c2.97 0.495 2.97 0.495 6 1 0.66 2.97 1.32 5.94 2 9-1.32-0.33-2.64-0.66-4-1-0.33-1.65-0.66-3.3-1-5-0.99-0.33-1.98-0.66-3-1v-3z" fill="#51A7DF"/>
<path transform="translate(743,254)" d="m0 0c0.66 0.33 1.32 0.66 2 1v2c0.639 0.124 1.28 0.248 1.94 0.375 0.681 0.206 1.36 0.413 2.06 0.625 0.33 0.66 0.66 1.32 1 2-0.33 0.66-0.66 1.32-1 2h-3c-0.66-0.99-1.32-1.98-2-3-2.06-0.724-2.06-0.724-4-1 0.99-1.32 1.98-2.64 3-4z" fill="#51A7DF"/>
<path transform="translate(342,777)" d="m0 0c2.25 1.77 2.95 2.58 3.29 5.48-0.0348 0.893-0.0696 1.79-0.105 2.71-0.0271 0.901-0.0541 1.8-0.082 2.73-0.0348 0.687-0.0696 1.37-0.105 2.08-0.99-0.33-1.98-0.66-3-1-0.195-1.62-0.381-3.25-0.562-4.88-0.104-0.905-0.209-1.81-0.316-2.74-0.121-2.38-0.121-2.38 0.879-4.38z" fill="#52A9DF"/>
<path transform="translate(690,162)" d="m0 0c0.33 0.66 0.66 1.32 1 2h3c0.33 0.99 0.66 1.98 1 3h-3v2h-2c-0.33 0.66-0.66 1.32-1 2-0.625-2.81-0.625-2.81-1-6 0.66-0.99 1.32-1.98 2-3z" fill="#51A7DF"/>
<path transform="translate(1010,850)" d="m0 0c3.68 3.28 5.81 6.63 8 11-0.33 0.66-0.66 1.32-1 2l-2-2v-3h-3v-3c-0.66-0.33-1.32-0.66-2-1v-4z" fill="#003282"/>
<path transform="translate(714,246)" d="m0 0c2.48 0.99 2.48 0.99 5 2v3c1.32 0.66 2.64 1.32 4 2-0.33 0.99-0.66 1.98-1 3v-2c-0.866-0.0309-0.866-0.0309-1.75-0.0625-3.63-1.51-4.5-4.5-6.25-7.94z" fill="#50A6DE"/>
<path transform="translate(812,804)" d="m0 0c0.722 0.309 1.44 0.619 2.19 0.938 2.62 0.988 5.06 1.59 7.81 2.06v2h-8c-0.66-1.65-1.32-3.3-2-5z" fill="#51A7DF"/>
<path transform="translate(190,785)" d="m0 0v9h-3c-0.8-3.29-1.1-4.71 0-8 2-1 2-1 3-1z" fill="#53AAE0"/>
</svg>
